G04 MADE WITH FRITZING*
G04 WWW.FRITZING.ORG*
G04 DOUBLE SIDED*
G04 HOLES PLATED*
G04 CONTOUR ON CENTER OF CONTOUR VECTOR*
%ASAXBY*%
%FSLAX23Y23*%
%MOIN*%
%OFA0B0*%
%SFA1.0B1.0*%
%ADD10C,0.008*%
%LNCONTOUR*%
G90*
G70*
G54D10*
X37Y3999D02*
X38Y3999D01*
X39Y3999D01*
X40Y3999D01*
X41Y3999D01*
X42Y3999D01*
X43Y3999D01*
X44Y3999D01*
X45Y3999D01*
X46Y3999D01*
X47Y3999D01*
X48Y3999D01*
X49Y3999D01*
X50Y3999D01*
X51Y3999D01*
X52Y3999D01*
X53Y3999D01*
X54Y3999D01*
X55Y3999D01*
X56Y3999D01*
X57Y3999D01*
X58Y3999D01*
X59Y3999D01*
X60Y3999D01*
X61Y3999D01*
X62Y3999D01*
X63Y3999D01*
X64Y3999D01*
X65Y3999D01*
X66Y3999D01*
X67Y3999D01*
X68Y3999D01*
X69Y3999D01*
X70Y3999D01*
X71Y3999D01*
X72Y3999D01*
X73Y3999D01*
X74Y3999D01*
X75Y3999D01*
X76Y3999D01*
X77Y3999D01*
X78Y3999D01*
X79Y3999D01*
X80Y3999D01*
X81Y3999D01*
X82Y3999D01*
X83Y3999D01*
X84Y3999D01*
X85Y3999D01*
X86Y3999D01*
X87Y3999D01*
X88Y3999D01*
X89Y3999D01*
X90Y3999D01*
X91Y3999D01*
X92Y3999D01*
X93Y3999D01*
X94Y3999D01*
X95Y3999D01*
X96Y3999D01*
X97Y3999D01*
X98Y3999D01*
X99Y3999D01*
X100Y3999D01*
X101Y3999D01*
X102Y3999D01*
X103Y3999D01*
X104Y3999D01*
X105Y3999D01*
X106Y3999D01*
X107Y3999D01*
X108Y3999D01*
X109Y3999D01*
X110Y3999D01*
X111Y3999D01*
X112Y3999D01*
X113Y3999D01*
X114Y3999D01*
X115Y3999D01*
X116Y3999D01*
X117Y3999D01*
X118Y3999D01*
X119Y3999D01*
X120Y3999D01*
X121Y3999D01*
X122Y3999D01*
X123Y3999D01*
X124Y3999D01*
X125Y3999D01*
X126Y3999D01*
X127Y3999D01*
X128Y3999D01*
X129Y3999D01*
X130Y3999D01*
X131Y3999D01*
X132Y3999D01*
X133Y3999D01*
X134Y3999D01*
X135Y3999D01*
X136Y3999D01*
X137Y3999D01*
X138Y3999D01*
X139Y3999D01*
X140Y3999D01*
X141Y3999D01*
X142Y3999D01*
X143Y3999D01*
X144Y3999D01*
X145Y3999D01*
X146Y3999D01*
X147Y3999D01*
X148Y3999D01*
X149Y3999D01*
X150Y3999D01*
X151Y3999D01*
X152Y3999D01*
X153Y3999D01*
X154Y3999D01*
X155Y3999D01*
X156Y3999D01*
X157Y3999D01*
X158Y3999D01*
X159Y3999D01*
X160Y3999D01*
X161Y3999D01*
X162Y3999D01*
X163Y3999D01*
X164Y3999D01*
X165Y3999D01*
X166Y3999D01*
X167Y3999D01*
X168Y3999D01*
X169Y3999D01*
X170Y3999D01*
X171Y3999D01*
X172Y3999D01*
X173Y3999D01*
X174Y3999D01*
X175Y3999D01*
X176Y3999D01*
X177Y3999D01*
X178Y3999D01*
X179Y3999D01*
X180Y3999D01*
X181Y3999D01*
X182Y3999D01*
X183Y3999D01*
X184Y3999D01*
X185Y3999D01*
X186Y3999D01*
X187Y3999D01*
X188Y3999D01*
X189Y3999D01*
X190Y3999D01*
X191Y3999D01*
X192Y3999D01*
X193Y3999D01*
X194Y3999D01*
X195Y3999D01*
X196Y3999D01*
X197Y3999D01*
X198Y3999D01*
X199Y3999D01*
X200Y3999D01*
X201Y3999D01*
X202Y3999D01*
X203Y3999D01*
X204Y3999D01*
X205Y3999D01*
X206Y3999D01*
X207Y3999D01*
X208Y3999D01*
X209Y3999D01*
X210Y3999D01*
X211Y3999D01*
X212Y3999D01*
X213Y3999D01*
X214Y3999D01*
X215Y3999D01*
X216Y3999D01*
X217Y3999D01*
X218Y3999D01*
X219Y3999D01*
X220Y3999D01*
X221Y3999D01*
X222Y3999D01*
X223Y3999D01*
X224Y3999D01*
X225Y3999D01*
X226Y3999D01*
X227Y3999D01*
X228Y3999D01*
X229Y3999D01*
X230Y3999D01*
X231Y3999D01*
X232Y3999D01*
X233Y3999D01*
X234Y3999D01*
X235Y3999D01*
X236Y3999D01*
X237Y3999D01*
X238Y3999D01*
X239Y3999D01*
X240Y3999D01*
X241Y3999D01*
X242Y3999D01*
X243Y3999D01*
X244Y3999D01*
X245Y3999D01*
X246Y3999D01*
X247Y3999D01*
X248Y3999D01*
X249Y3999D01*
X250Y3999D01*
X251Y3999D01*
X252Y3999D01*
X253Y3999D01*
X254Y3999D01*
X255Y3999D01*
X256Y3999D01*
X257Y3999D01*
X258Y3999D01*
X259Y3999D01*
X260Y3999D01*
X261Y3999D01*
X262Y3999D01*
X263Y3999D01*
X264Y3999D01*
X265Y3999D01*
X266Y3999D01*
X267Y3999D01*
X268Y3999D01*
X269Y3999D01*
X270Y3999D01*
X271Y3999D01*
X272Y3999D01*
X273Y3999D01*
X274Y3999D01*
X275Y3999D01*
X276Y3999D01*
X277Y3999D01*
X278Y3999D01*
X279Y3999D01*
X280Y3999D01*
X281Y3999D01*
X282Y3999D01*
X283Y3999D01*
X284Y3999D01*
X285Y3999D01*
X286Y3999D01*
X287Y3999D01*
X288Y3999D01*
X289Y3999D01*
X290Y3999D01*
X291Y3999D01*
X292Y3999D01*
X293Y3999D01*
X294Y3999D01*
X295Y3999D01*
X296Y3999D01*
X297Y3999D01*
X298Y3999D01*
X299Y3999D01*
X300Y3999D01*
X301Y3999D01*
X302Y3999D01*
X303Y3999D01*
X304Y3999D01*
X305Y3999D01*
X306Y3999D01*
X307Y3999D01*
X308Y3999D01*
X309Y3999D01*
X310Y3999D01*
X311Y3999D01*
X312Y3999D01*
X313Y3999D01*
X314Y3999D01*
X315Y3999D01*
X316Y3999D01*
X317Y3999D01*
X318Y3999D01*
X319Y3999D01*
X320Y3999D01*
X321Y3999D01*
X322Y3999D01*
X323Y3999D01*
X324Y3999D01*
X325Y3999D01*
X326Y3999D01*
X327Y3999D01*
X328Y3999D01*
X329Y3999D01*
X330Y3999D01*
X331Y3999D01*
X332Y3999D01*
X333Y3999D01*
X334Y3999D01*
X335Y3999D01*
X336Y3999D01*
X337Y3999D01*
X338Y3999D01*
X339Y3999D01*
X340Y3999D01*
X341Y3999D01*
X342Y3999D01*
X343Y3999D01*
X344Y3999D01*
X345Y3999D01*
X346Y3999D01*
X347Y3999D01*
X348Y3999D01*
X349Y3999D01*
X350Y3999D01*
X351Y3999D01*
X352Y3999D01*
X353Y3999D01*
X354Y3999D01*
X355Y3999D01*
X356Y3999D01*
X357Y3999D01*
X358Y3999D01*
X359Y3999D01*
X360Y3999D01*
X361Y3999D01*
X362Y3999D01*
X363Y3999D01*
X364Y3999D01*
X365Y3999D01*
X366Y3999D01*
X367Y3999D01*
X368Y3999D01*
X369Y3999D01*
X370Y3999D01*
X371Y3999D01*
X372Y3999D01*
X373Y3999D01*
X374Y3999D01*
X375Y3999D01*
X376Y3999D01*
X377Y3999D01*
X378Y3999D01*
X379Y3999D01*
X380Y3999D01*
X381Y3999D01*
X382Y3999D01*
X383Y3999D01*
X384Y3999D01*
X385Y3999D01*
X386Y3999D01*
X387Y3999D01*
X388Y3999D01*
X389Y3999D01*
X390Y3999D01*
X391Y3999D01*
X392Y3999D01*
X393Y3999D01*
X394Y3999D01*
X395Y3999D01*
X396Y3999D01*
X397Y3999D01*
X398Y3999D01*
X399Y3999D01*
X400Y3999D01*
X401Y3999D01*
X402Y3999D01*
X403Y3999D01*
X404Y3999D01*
X405Y3999D01*
X406Y3999D01*
X407Y3999D01*
X408Y3999D01*
X409Y3999D01*
X410Y3999D01*
X411Y3999D01*
X412Y3999D01*
X413Y3999D01*
X414Y3999D01*
X415Y3999D01*
X416Y3999D01*
X417Y3999D01*
X418Y3999D01*
X419Y3999D01*
X420Y3999D01*
X421Y3999D01*
X422Y3999D01*
X423Y3999D01*
X424Y3999D01*
X425Y3999D01*
X426Y3999D01*
X427Y3999D01*
X428Y3999D01*
X429Y3999D01*
X430Y3999D01*
X431Y3999D01*
X432Y3999D01*
X433Y3999D01*
X434Y3999D01*
X435Y3999D01*
X436Y3999D01*
X437Y3999D01*
X438Y3999D01*
X439Y3999D01*
X440Y3999D01*
X441Y3999D01*
X442Y3999D01*
X443Y3999D01*
X444Y3999D01*
X445Y3999D01*
X446Y3999D01*
X447Y3999D01*
X448Y3999D01*
X449Y3999D01*
X450Y3999D01*
X451Y3999D01*
X452Y3999D01*
X453Y3999D01*
X454Y3999D01*
X455Y3999D01*
X456Y3999D01*
X457Y3999D01*
X458Y3999D01*
X459Y3999D01*
X460Y3999D01*
X461Y3999D01*
X462Y3999D01*
X463Y3999D01*
X464Y3999D01*
X465Y3999D01*
X466Y3999D01*
X467Y3999D01*
X468Y3999D01*
X469Y3999D01*
X470Y3999D01*
X471Y3999D01*
X472Y3999D01*
X473Y3999D01*
X474Y3999D01*
X475Y3999D01*
X476Y3999D01*
X477Y3999D01*
X478Y3999D01*
X479Y3999D01*
X480Y3999D01*
X481Y3999D01*
X482Y3999D01*
X483Y3999D01*
X484Y3999D01*
X485Y3999D01*
X486Y3999D01*
X487Y3999D01*
X488Y3999D01*
X489Y3999D01*
X490Y3999D01*
X491Y3999D01*
X492Y3999D01*
X493Y3999D01*
X494Y3999D01*
X495Y3999D01*
X496Y3999D01*
X497Y3999D01*
X498Y3999D01*
X499Y3999D01*
X500Y3999D01*
X501Y3999D01*
X502Y3999D01*
X503Y3999D01*
X504Y3999D01*
X505Y3999D01*
X506Y3999D01*
X507Y3999D01*
X508Y3999D01*
X509Y3999D01*
X510Y3999D01*
X511Y3999D01*
X512Y3999D01*
X513Y3999D01*
X514Y3999D01*
X515Y3999D01*
X516Y3999D01*
X517Y3999D01*
X518Y3999D01*
X519Y3999D01*
X520Y3999D01*
X521Y3999D01*
X522Y3999D01*
X523Y3999D01*
X524Y3999D01*
X525Y3999D01*
X526Y3999D01*
X527Y3999D01*
X528Y3999D01*
X529Y3999D01*
X530Y3999D01*
X531Y3999D01*
X532Y3999D01*
X533Y3999D01*
X534Y3999D01*
X535Y3999D01*
X536Y3999D01*
X537Y3999D01*
X538Y3999D01*
X539Y3999D01*
X540Y3999D01*
X541Y3999D01*
X542Y3999D01*
X543Y3999D01*
X544Y3999D01*
X545Y3999D01*
X546Y3999D01*
X547Y3999D01*
X548Y3999D01*
X549Y3999D01*
X550Y3999D01*
X551Y3999D01*
X552Y3999D01*
X553Y3999D01*
X554Y3999D01*
X555Y3999D01*
X556Y3999D01*
X557Y3999D01*
X558Y3999D01*
X559Y3999D01*
X560Y3999D01*
X561Y3999D01*
X562Y3999D01*
X563Y3999D01*
X564Y3999D01*
X565Y3999D01*
X566Y3999D01*
X567Y3999D01*
X568Y3999D01*
X569Y3999D01*
X570Y3999D01*
X571Y3999D01*
X572Y3999D01*
X573Y3999D01*
X574Y3999D01*
X575Y3999D01*
X576Y3999D01*
X577Y3999D01*
X578Y3999D01*
X579Y3999D01*
X580Y3999D01*
X581Y3999D01*
X582Y3999D01*
X583Y3999D01*
X584Y3999D01*
X585Y3999D01*
X586Y3999D01*
X587Y3999D01*
X588Y3999D01*
X589Y3999D01*
X590Y3999D01*
X591Y3999D01*
X592Y3999D01*
X593Y3999D01*
X594Y3999D01*
X595Y3999D01*
X596Y3999D01*
X597Y3999D01*
X598Y3999D01*
X599Y3999D01*
X600Y3999D01*
X601Y3999D01*
X602Y3999D01*
X603Y3999D01*
X604Y3999D01*
X605Y3999D01*
X606Y3999D01*
X607Y3999D01*
X608Y3999D01*
X609Y3999D01*
X610Y3999D01*
X611Y3999D01*
X612Y3999D01*
X613Y3999D01*
X614Y3999D01*
X615Y3999D01*
X616Y3999D01*
X617Y3999D01*
X618Y3999D01*
X619Y3999D01*
X620Y3999D01*
X621Y3999D01*
X622Y3999D01*
X623Y3999D01*
X624Y3999D01*
X625Y3999D01*
X626Y3999D01*
X627Y3999D01*
X628Y3999D01*
X629Y3999D01*
X630Y3999D01*
X631Y3999D01*
X632Y3999D01*
X633Y3999D01*
X634Y3999D01*
X635Y3999D01*
X636Y3999D01*
X637Y3999D01*
X638Y3999D01*
X639Y3999D01*
X640Y3999D01*
X641Y3999D01*
X642Y3999D01*
X643Y3999D01*
X644Y3999D01*
X645Y3999D01*
X646Y3999D01*
X647Y3999D01*
X648Y3999D01*
X649Y3999D01*
X650Y3999D01*
X651Y3999D01*
X652Y3999D01*
X653Y3999D01*
X654Y3999D01*
X655Y3999D01*
X656Y3999D01*
X657Y3999D01*
X658Y3999D01*
X659Y3999D01*
X660Y3999D01*
X661Y3999D01*
X662Y3999D01*
X663Y3999D01*
X664Y3999D01*
X665Y3999D01*
X666Y3999D01*
X667Y3999D01*
X668Y3999D01*
X669Y3999D01*
X670Y3999D01*
X671Y3999D01*
X672Y3999D01*
X673Y3999D01*
X674Y3999D01*
X675Y3999D01*
X676Y3999D01*
X677Y3999D01*
X678Y3999D01*
X679Y3999D01*
X680Y3999D01*
X681Y3999D01*
X682Y3999D01*
X683Y3999D01*
X684Y3999D01*
X685Y3999D01*
X686Y3999D01*
X687Y3999D01*
X688Y3999D01*
X689Y3999D01*
X690Y3999D01*
X691Y3999D01*
X692Y3999D01*
X693Y3999D01*
X694Y3999D01*
X695Y3999D01*
X696Y3999D01*
X697Y3999D01*
X698Y3999D01*
X699Y3999D01*
X700Y3999D01*
X701Y3999D01*
X702Y3999D01*
X703Y3999D01*
X704Y3999D01*
X705Y3999D01*
X706Y3999D01*
X707Y3999D01*
X708Y3999D01*
X709Y3999D01*
X710Y3999D01*
X711Y3999D01*
X712Y3999D01*
X713Y3999D01*
X714Y3999D01*
X715Y3999D01*
X716Y3999D01*
X717Y3999D01*
X718Y3999D01*
X719Y3999D01*
X720Y3999D01*
X721Y3999D01*
X722Y3999D01*
X723Y3999D01*
X724Y3999D01*
X725Y3999D01*
X726Y3999D01*
X727Y3999D01*
X728Y3999D01*
X729Y3999D01*
X730Y3999D01*
X731Y3999D01*
X732Y3999D01*
X733Y3999D01*
X734Y3999D01*
X735Y3999D01*
X736Y3999D01*
X737Y3999D01*
X738Y3999D01*
X739Y3999D01*
X740Y3999D01*
X741Y3999D01*
X742Y3999D01*
X743Y3999D01*
X744Y3999D01*
X745Y3999D01*
X746Y3999D01*
X747Y3999D01*
X748Y3999D01*
X749Y3999D01*
X750Y3999D01*
X751Y3999D01*
X752Y3999D01*
X753Y3999D01*
X754Y3999D01*
X755Y3999D01*
X756Y3999D01*
X757Y3999D01*
X758Y3999D01*
X759Y3999D01*
X760Y3999D01*
X761Y3999D01*
X762Y3999D01*
X763Y3999D01*
X764Y3999D01*
X765Y3999D01*
X766Y3999D01*
X767Y3999D01*
X768Y3999D01*
X769Y3999D01*
X770Y3999D01*
X771Y3999D01*
X772Y3999D01*
X773Y3999D01*
X774Y3999D01*
X775Y3999D01*
X776Y3999D01*
X777Y3999D01*
X778Y3999D01*
X779Y3999D01*
X780Y3999D01*
X781Y3999D01*
X782Y3999D01*
X783Y3999D01*
X784Y3999D01*
X785Y3999D01*
X786Y3999D01*
X787Y3999D01*
X788Y3999D01*
X789Y3999D01*
X790Y3999D01*
X791Y3999D01*
X792Y3999D01*
X793Y3999D01*
X794Y3999D01*
X795Y3999D01*
X796Y3999D01*
X797Y3999D01*
X798Y3999D01*
X799Y3999D01*
X800Y3999D01*
X801Y3999D01*
X802Y3999D01*
X803Y3999D01*
X804Y3999D01*
X805Y3999D01*
X806Y3999D01*
X807Y3999D01*
X808Y3999D01*
X809Y3999D01*
X810Y3999D01*
X811Y3999D01*
X812Y3999D01*
X813Y3999D01*
X814Y3999D01*
X815Y3999D01*
X816Y3999D01*
X817Y3999D01*
X818Y3999D01*
X819Y3999D01*
X820Y3999D01*
X821Y3999D01*
X822Y3999D01*
X823Y3999D01*
X824Y3999D01*
X825Y3999D01*
X826Y3999D01*
X827Y3999D01*
X828Y3999D01*
X829Y3999D01*
X830Y3999D01*
X831Y3999D01*
X832Y3999D01*
X833Y3999D01*
X834Y3999D01*
X835Y3999D01*
X836Y3999D01*
X837Y3999D01*
X838Y3999D01*
X839Y3999D01*
X840Y3999D01*
X841Y3999D01*
X842Y3999D01*
X843Y3999D01*
X844Y3999D01*
X845Y3999D01*
X846Y3999D01*
X847Y3999D01*
X848Y3999D01*
X849Y3999D01*
X850Y3999D01*
X851Y3999D01*
X852Y3999D01*
X853Y3999D01*
X854Y3999D01*
X855Y3999D01*
X856Y3999D01*
X857Y3999D01*
X858Y3999D01*
X859Y3999D01*
X860Y3999D01*
X861Y3999D01*
X862Y3999D01*
X863Y3999D01*
X864Y3999D01*
X865Y3999D01*
X866Y3999D01*
X867Y3999D01*
X868Y3999D01*
X869Y3999D01*
X870Y3999D01*
X871Y3999D01*
X872Y3999D01*
X873Y3999D01*
X874Y3999D01*
X875Y3999D01*
X876Y3999D01*
X877Y3999D01*
X878Y3999D01*
X879Y3999D01*
X880Y3999D01*
X881Y3999D01*
X882Y3999D01*
X883Y3999D01*
X884Y3999D01*
X885Y3999D01*
X886Y3999D01*
X887Y3999D01*
X888Y3999D01*
X889Y3999D01*
X890Y3999D01*
X891Y3999D01*
X892Y3999D01*
X893Y3999D01*
X894Y3999D01*
X895Y3999D01*
X896Y3999D01*
X897Y3999D01*
X898Y3999D01*
X899Y3999D01*
X900Y3999D01*
X901Y3999D01*
X902Y3999D01*
X903Y3999D01*
X904Y3999D01*
X905Y3999D01*
X906Y3999D01*
X907Y3999D01*
X908Y3999D01*
X909Y3999D01*
X910Y3999D01*
X911Y3999D01*
X912Y3999D01*
X913Y3999D01*
X914Y3999D01*
X915Y3999D01*
X916Y3999D01*
X917Y3999D01*
X918Y3999D01*
X919Y3999D01*
X920Y3999D01*
X921Y3999D01*
X922Y3999D01*
X923Y3999D01*
X924Y3999D01*
X925Y3999D01*
X926Y3999D01*
X927Y3999D01*
X928Y3999D01*
X929Y3999D01*
X930Y3999D01*
X931Y3999D01*
X932Y3999D01*
X933Y3999D01*
X934Y3999D01*
X935Y3999D01*
X936Y3999D01*
X937Y3999D01*
X938Y3999D01*
X939Y3999D01*
X940Y3999D01*
X941Y3999D01*
X942Y3999D01*
X943Y3999D01*
X944Y3999D01*
X945Y3999D01*
X946Y3999D01*
X947Y3999D01*
X948Y3999D01*
X949Y3999D01*
X950Y3999D01*
X951Y3999D01*
X952Y3999D01*
X953Y3999D01*
X954Y3999D01*
X955Y3999D01*
X956Y3999D01*
X957Y3999D01*
X958Y3999D01*
X959Y3999D01*
X960Y3999D01*
X961Y3999D01*
X962Y3999D01*
X963Y3999D01*
X964Y3999D01*
X965Y3999D01*
X966Y3999D01*
X967Y3999D01*
X968Y3999D01*
X969Y3999D01*
X970Y3999D01*
X971Y3999D01*
X972Y3999D01*
X973Y3999D01*
X974Y3999D01*
X975Y3999D01*
X976Y3999D01*
X977Y3999D01*
X978Y3999D01*
X979Y3999D01*
X980Y3999D01*
X981Y3999D01*
X982Y3999D01*
X983Y3999D01*
X984Y3999D01*
X985Y3999D01*
X986Y3999D01*
X987Y3999D01*
X988Y3999D01*
X989Y3999D01*
X990Y3999D01*
X991Y3999D01*
X992Y3999D01*
X993Y3999D01*
X994Y3999D01*
X995Y3999D01*
X996Y3999D01*
X997Y3999D01*
X998Y3999D01*
X999Y3999D01*
X1000Y3999D01*
X1001Y3999D01*
X1002Y3999D01*
X1003Y3999D01*
X1004Y3999D01*
X1005Y3999D01*
X1006Y3999D01*
X1007Y3999D01*
X1008Y3999D01*
X1009Y3999D01*
X1010Y3999D01*
X1011Y3999D01*
X1012Y3999D01*
X1013Y3999D01*
X1014Y3999D01*
X1015Y3999D01*
X1016Y3999D01*
X1017Y3999D01*
X1018Y3999D01*
X1019Y3999D01*
X1020Y3999D01*
X1021Y3999D01*
X1022Y3999D01*
X1023Y3999D01*
X1024Y3999D01*
X1025Y3999D01*
X1026Y3999D01*
X1027Y3999D01*
X1028Y3999D01*
X1029Y3999D01*
X1030Y3999D01*
X1031Y3999D01*
X1032Y3999D01*
X1033Y3999D01*
X1034Y3999D01*
X1035Y3999D01*
X1036Y3999D01*
X1037Y3999D01*
X1038Y3999D01*
X1039Y3999D01*
X1040Y3999D01*
X1041Y3999D01*
X1042Y3999D01*
X1043Y3999D01*
X1044Y3999D01*
X1045Y3999D01*
X1046Y3999D01*
X1047Y3999D01*
X1048Y3999D01*
X1049Y3999D01*
X1050Y3999D01*
X1051Y3999D01*
X1052Y3999D01*
X1053Y3999D01*
X1054Y3999D01*
X1055Y3999D01*
X1056Y3999D01*
X1057Y3999D01*
X1058Y3999D01*
X1059Y3999D01*
X1060Y3999D01*
X1061Y3999D01*
X1062Y3999D01*
X1063Y3999D01*
X1064Y3999D01*
X1065Y3999D01*
X1066Y3999D01*
X1067Y3999D01*
X1068Y3999D01*
X1069Y3999D01*
X1070Y3999D01*
X1071Y3999D01*
X1072Y3999D01*
X1073Y3999D01*
X1074Y3999D01*
X1075Y3999D01*
X1076Y3999D01*
X1077Y3999D01*
X1078Y3999D01*
X1079Y3999D01*
X1080Y3999D01*
X1081Y3999D01*
X1082Y3999D01*
X1083Y3999D01*
X1084Y3999D01*
X1085Y3999D01*
X1086Y3999D01*
X1087Y3999D01*
X1088Y3999D01*
X1089Y3999D01*
X1090Y3999D01*
X1091Y3999D01*
X1092Y3999D01*
X1093Y3999D01*
X1094Y3999D01*
X1095Y3999D01*
X1096Y3999D01*
X1097Y3999D01*
X1098Y3999D01*
X1099Y3999D01*
X1100Y3999D01*
X1101Y3999D01*
X1102Y3999D01*
X1103Y3999D01*
X1104Y3999D01*
X1105Y3999D01*
X1106Y3999D01*
X1107Y3999D01*
X1108Y3999D01*
X1109Y3999D01*
X1110Y3999D01*
X1111Y3999D01*
X1112Y3999D01*
X1113Y3999D01*
X1114Y3999D01*
X1115Y3999D01*
X1116Y3999D01*
X1117Y3999D01*
X1118Y3999D01*
X1119Y3999D01*
X1120Y3999D01*
X1121Y3999D01*
X1122Y3999D01*
X1123Y3999D01*
X1124Y3999D01*
X1125Y3999D01*
X1126Y3999D01*
X1127Y3999D01*
X1128Y3999D01*
X1129Y3999D01*
X1130Y3999D01*
X1131Y3999D01*
X1132Y3999D01*
X1133Y3999D01*
X1134Y3999D01*
X1135Y3999D01*
X1136Y3999D01*
X1137Y3999D01*
X1138Y3999D01*
X1139Y3999D01*
X1140Y3999D01*
X1141Y3999D01*
X1142Y3999D01*
X1143Y3999D01*
X1144Y3999D01*
X1145Y3999D01*
X1146Y3999D01*
X1147Y3999D01*
X1148Y3999D01*
X1149Y3999D01*
X1150Y3999D01*
X1151Y3999D01*
X1152Y3999D01*
X1153Y3999D01*
X1154Y3999D01*
X1155Y3999D01*
X1156Y3999D01*
X1157Y3999D01*
X1158Y3999D01*
X1159Y3999D01*
X1160Y3999D01*
X1161Y3999D01*
X1162Y3999D01*
X1163Y3999D01*
X1164Y3999D01*
X1165Y3999D01*
X1166Y3999D01*
X1167Y3999D01*
X1168Y3999D01*
X1169Y3999D01*
X1170Y3999D01*
X1171Y3999D01*
X1172Y3999D01*
X1173Y3999D01*
X1174Y3999D01*
X1175Y3999D01*
X1176Y3999D01*
X1177Y3999D01*
X1178Y3999D01*
X1179Y3999D01*
X1180Y3999D01*
X1181Y3999D01*
X1182Y3999D01*
X1183Y3999D01*
X1184Y3999D01*
X1185Y3999D01*
X1186Y3999D01*
X1187Y3999D01*
X1188Y3999D01*
X1189Y3999D01*
X1190Y3999D01*
X1191Y3999D01*
X1192Y3999D01*
X1193Y3999D01*
X1194Y3999D01*
X1195Y3999D01*
X1196Y3999D01*
X1197Y3999D01*
X1198Y3999D01*
X1199Y3999D01*
X1200Y3999D01*
X1201Y3999D01*
X1202Y3999D01*
X1203Y3999D01*
X1204Y3999D01*
X1205Y3999D01*
X1206Y3999D01*
X1207Y3999D01*
X1208Y3999D01*
X1209Y3999D01*
X1210Y3999D01*
X1211Y3999D01*
X1212Y3999D01*
X1213Y3999D01*
X1214Y3999D01*
X1215Y3999D01*
X1216Y3999D01*
X1217Y3999D01*
X1218Y3999D01*
X1219Y3999D01*
X1220Y3999D01*
X1221Y3999D01*
X1222Y3999D01*
X1223Y3999D01*
X1224Y3999D01*
X1225Y3999D01*
X1226Y3999D01*
X1227Y3999D01*
X1228Y3999D01*
X1229Y3999D01*
X1230Y3999D01*
X1231Y3999D01*
X1232Y3999D01*
X1233Y3999D01*
X1234Y3999D01*
X1235Y3999D01*
X1236Y3999D01*
X1237Y3999D01*
X1238Y3999D01*
X1239Y3999D01*
X1240Y3999D01*
X1241Y3999D01*
X1242Y3999D01*
X1243Y3999D01*
X1244Y3999D01*
X1245Y3999D01*
X1246Y3999D01*
X1247Y3999D01*
X1248Y3999D01*
X1249Y3999D01*
X1250Y3999D01*
X1251Y3999D01*
X1252Y3999D01*
X1253Y3999D01*
X1254Y3999D01*
X1255Y3999D01*
X1256Y3999D01*
X1257Y3999D01*
X1258Y3999D01*
X1259Y3999D01*
X1260Y3999D01*
X1261Y3999D01*
X1262Y3999D01*
X1263Y3999D01*
X1264Y3999D01*
X1265Y3999D01*
X1266Y3999D01*
X1267Y3999D01*
X1268Y3999D01*
X1269Y3999D01*
X1270Y3999D01*
X1271Y3999D01*
X1272Y3999D01*
X1273Y3999D01*
X1274Y3999D01*
X1275Y3999D01*
X1276Y3999D01*
X1277Y3999D01*
X1278Y3999D01*
X1279Y3999D01*
X1280Y3999D01*
X1281Y3999D01*
X1282Y3999D01*
X1283Y3999D01*
X1284Y3999D01*
X1285Y3999D01*
X1286Y3999D01*
X1287Y3999D01*
X1288Y3999D01*
X1289Y3999D01*
X1290Y3999D01*
X1291Y3999D01*
X1292Y3999D01*
X1293Y3999D01*
X1294Y3999D01*
X1295Y3999D01*
X1296Y3999D01*
X1297Y3999D01*
X1298Y3999D01*
X1299Y3999D01*
X1300Y3999D01*
X1301Y3999D01*
X1302Y3999D01*
X1303Y3999D01*
X1304Y3999D01*
X1305Y3999D01*
X1306Y3999D01*
X1307Y3999D01*
X1308Y3999D01*
X1309Y3999D01*
X1310Y3999D01*
X1311Y3999D01*
X1312Y3999D01*
X1313Y3999D01*
X1314Y3999D01*
X1315Y3999D01*
X1316Y3999D01*
X1317Y3999D01*
X1318Y3999D01*
X1319Y3999D01*
X1320Y3999D01*
X1321Y3999D01*
X1322Y3999D01*
X1323Y3999D01*
X1324Y3999D01*
X1325Y3999D01*
X1326Y3999D01*
X1327Y3999D01*
X1328Y3999D01*
X1329Y3999D01*
X1330Y3999D01*
X1331Y3999D01*
X1332Y3999D01*
X1333Y3999D01*
X1334Y3999D01*
X1335Y3999D01*
X1336Y3999D01*
X1337Y3999D01*
X1338Y3999D01*
X1339Y3999D01*
X1340Y3999D01*
X1341Y3999D01*
X1342Y3999D01*
X1343Y3999D01*
X1344Y3999D01*
X1345Y3999D01*
X1346Y3999D01*
X1347Y3999D01*
X1348Y3999D01*
X1349Y3999D01*
X1350Y3999D01*
X1351Y3999D01*
X1352Y3999D01*
X1353Y3999D01*
X1354Y3999D01*
X1355Y3999D01*
X1356Y3999D01*
X1357Y3999D01*
X1358Y3999D01*
X1359Y3999D01*
X1360Y3999D01*
X1361Y3999D01*
X1362Y3999D01*
X1363Y3999D01*
X1364Y3999D01*
X1365Y3999D01*
X1366Y3999D01*
X1367Y3999D01*
X1368Y3999D01*
X1369Y3999D01*
X1370Y3999D01*
X1371Y3999D01*
X1372Y3999D01*
X1373Y3999D01*
X1374Y3999D01*
X1375Y3999D01*
X1376Y3999D01*
X1377Y3999D01*
X1378Y3999D01*
X1379Y3999D01*
X1380Y3999D01*
X1381Y3999D01*
X1382Y3999D01*
X1383Y3999D01*
X1384Y3999D01*
X1385Y3999D01*
X1386Y3999D01*
X1387Y3999D01*
X1388Y3999D01*
X1389Y3999D01*
X1390Y3999D01*
X1391Y3999D01*
X1392Y3999D01*
X1393Y3999D01*
X1394Y3999D01*
X1395Y3999D01*
X1396Y3999D01*
X1397Y3999D01*
X1398Y3999D01*
X1399Y3999D01*
X1400Y3999D01*
X1401Y3999D01*
X1402Y3999D01*
X1403Y3999D01*
X1404Y3999D01*
X1405Y3999D01*
X1406Y3999D01*
X1407Y3999D01*
X1408Y3999D01*
X1409Y3999D01*
X1410Y3999D01*
X1411Y3999D01*
X1412Y3999D01*
X1413Y3999D01*
X1414Y3999D01*
X1415Y3999D01*
X1416Y3999D01*
X1417Y3999D01*
X1418Y3999D01*
X1419Y3999D01*
X1420Y3999D01*
X1421Y3999D01*
X1422Y3999D01*
X1423Y3999D01*
X1424Y3999D01*
X1425Y3999D01*
X1426Y3999D01*
X1427Y3999D01*
X1428Y3999D01*
X1429Y3999D01*
X1430Y3999D01*
X1431Y3999D01*
X1432Y3999D01*
X1433Y3999D01*
X1434Y3999D01*
X1435Y3999D01*
X1436Y3999D01*
X1437Y3999D01*
X1438Y3999D01*
X1439Y3999D01*
X1440Y3999D01*
X1441Y3999D01*
X1442Y3999D01*
X1443Y3999D01*
X1444Y3999D01*
X1445Y3999D01*
X1446Y3999D01*
X1447Y3999D01*
X1448Y3999D01*
X1449Y3999D01*
X1450Y3999D01*
X1451Y3999D01*
X1452Y3999D01*
X1453Y3999D01*
X1454Y3999D01*
X1455Y3999D01*
X1456Y3999D01*
X1457Y3999D01*
X1458Y3999D01*
X1459Y3999D01*
X1460Y3999D01*
X1461Y3999D01*
X1462Y3999D01*
X1463Y3999D01*
X1464Y3999D01*
X1465Y3999D01*
X1466Y3999D01*
X1467Y3999D01*
X1468Y3999D01*
X1469Y3999D01*
X1470Y3999D01*
X1471Y3999D01*
X1472Y3999D01*
X1473Y3999D01*
X1474Y3999D01*
X1475Y3999D01*
X1476Y3999D01*
X1477Y3999D01*
X1478Y3999D01*
X1479Y3999D01*
X1480Y3999D01*
X1481Y3999D01*
X1482Y3999D01*
X1483Y3999D01*
X1484Y3999D01*
X1485Y3999D01*
X1486Y3999D01*
X1487Y3999D01*
X1488Y3999D01*
X1489Y3999D01*
X1490Y3999D01*
X1491Y3999D01*
X1492Y3999D01*
X1493Y3999D01*
X1494Y3999D01*
X1495Y3999D01*
X1496Y3999D01*
X1497Y3999D01*
X1498Y3999D01*
X1499Y3999D01*
X1500Y3999D01*
X1501Y3999D01*
X1502Y3999D01*
X1503Y3999D01*
X1504Y3999D01*
X1505Y3999D01*
X1506Y3999D01*
X1507Y3999D01*
X1508Y3999D01*
X1509Y3999D01*
X1510Y3999D01*
X1511Y3999D01*
X1512Y3999D01*
X1513Y3999D01*
X1514Y3999D01*
X1515Y3999D01*
X1516Y3999D01*
X1517Y3999D01*
X1518Y3999D01*
X1519Y3999D01*
X1520Y3999D01*
X1521Y3999D01*
X1522Y3999D01*
X1523Y3999D01*
X1524Y3999D01*
X1525Y3999D01*
X1526Y3999D01*
X1527Y3999D01*
X1528Y3999D01*
X1529Y3999D01*
X1530Y3999D01*
X1531Y3999D01*
X1532Y3999D01*
X1533Y3999D01*
X1534Y3999D01*
X1535Y3999D01*
X1536Y3999D01*
X1537Y3999D01*
X1538Y3999D01*
X1539Y3999D01*
X1540Y3999D01*
X1541Y3999D01*
X1542Y3999D01*
X1543Y3999D01*
X1544Y3999D01*
X1545Y3999D01*
X1546Y3999D01*
X1547Y3999D01*
X1548Y3999D01*
X1549Y3999D01*
X1550Y3999D01*
X1551Y3999D01*
X1552Y3999D01*
X1553Y3999D01*
X1554Y3999D01*
X1555Y3999D01*
X1556Y3999D01*
X1557Y3999D01*
X1558Y3999D01*
X1559Y3999D01*
X1560Y3999D01*
X1561Y3999D01*
X1562Y3999D01*
X1563Y3999D01*
X1564Y3999D01*
X1565Y3999D01*
X1566Y3999D01*
X1567Y3999D01*
X1568Y3999D01*
X1569Y3999D01*
X1570Y3999D01*
X1571Y3999D01*
X1572Y3999D01*
X1573Y3999D01*
X1574Y3999D01*
X1575Y3999D01*
X1576Y3999D01*
X1577Y3999D01*
X1578Y3999D01*
X1579Y3999D01*
X1580Y3999D01*
X1581Y3999D01*
X1582Y3999D01*
X1583Y3999D01*
X1584Y3999D01*
X1585Y3999D01*
X1586Y3999D01*
X1587Y3999D01*
X1588Y3999D01*
X1589Y3999D01*
X1590Y3999D01*
X1591Y3999D01*
X1592Y3999D01*
X1593Y3999D01*
X1594Y3999D01*
X1595Y3999D01*
X1596Y3999D01*
X1597Y3999D01*
X1598Y3999D01*
X1599Y3999D01*
X1600Y3999D01*
X1601Y3999D01*
X1602Y3999D01*
X1603Y3999D01*
X1604Y3999D01*
X1605Y3999D01*
X1606Y3999D01*
X1607Y3999D01*
X1608Y3999D01*
X1609Y3999D01*
X1610Y3999D01*
X1611Y3999D01*
X1612Y3999D01*
X1613Y3999D01*
X1614Y3999D01*
X1615Y3999D01*
X1616Y3999D01*
X1617Y3999D01*
X1618Y3999D01*
X1619Y3999D01*
X1620Y3999D01*
X1621Y3999D01*
X1622Y3999D01*
X1623Y3999D01*
X1624Y3999D01*
X1625Y3999D01*
X1626Y3999D01*
X1627Y3999D01*
X1628Y3999D01*
X1629Y3999D01*
X1630Y3999D01*
X1631Y3999D01*
X1632Y3999D01*
X1633Y3999D01*
X1634Y3999D01*
X1635Y3999D01*
X1636Y3999D01*
X1637Y3999D01*
X1638Y3999D01*
X1639Y3999D01*
X1640Y3999D01*
X1641Y3999D01*
X1642Y3999D01*
X1643Y3999D01*
X1644Y3999D01*
X1645Y3999D01*
X1646Y3999D01*
X1647Y3999D01*
X1648Y3999D01*
X1649Y3999D01*
X1650Y3999D01*
X1651Y3999D01*
X1652Y3999D01*
X1653Y3999D01*
X1654Y3999D01*
X1655Y3999D01*
X1656Y3999D01*
X1657Y3999D01*
X1658Y3999D01*
X1659Y3999D01*
X1660Y3999D01*
X1661Y3999D01*
X1662Y3999D01*
X1663Y3999D01*
X1664Y3999D01*
X1665Y3999D01*
X1666Y3999D01*
X1667Y3999D01*
X1668Y3999D01*
X1669Y3999D01*
X1670Y3999D01*
X1671Y3999D01*
X1672Y3999D01*
X1673Y3999D01*
X1674Y3999D01*
X1675Y3999D01*
X1676Y3999D01*
X1677Y3999D01*
X1678Y3999D01*
X1679Y3999D01*
X1680Y3999D01*
X1681Y3999D01*
X1682Y3999D01*
X1683Y3999D01*
X1684Y3999D01*
X1685Y3999D01*
X1686Y3999D01*
X1687Y3999D01*
X1688Y3999D01*
X1689Y3999D01*
X1690Y3999D01*
X1691Y3999D01*
X1692Y3999D01*
X1693Y3999D01*
X1694Y3999D01*
X1695Y3999D01*
X1696Y3999D01*
X1697Y3999D01*
X1698Y3999D01*
X1699Y3999D01*
X1700Y3999D01*
X1701Y3999D01*
X1702Y3999D01*
X1703Y3999D01*
X1704Y3999D01*
X1705Y3999D01*
X1706Y3999D01*
X1707Y3999D01*
X1708Y3999D01*
X1709Y3999D01*
X1710Y3999D01*
X1711Y3999D01*
X1712Y3999D01*
X1713Y3999D01*
X1714Y3999D01*
X1715Y3999D01*
X1716Y3999D01*
X1717Y3999D01*
X1718Y3999D01*
X1719Y3999D01*
X1720Y3999D01*
X1721Y3999D01*
X1722Y3999D01*
X1723Y3999D01*
X1724Y3999D01*
X1725Y3999D01*
X1726Y3999D01*
X1727Y3999D01*
X1728Y3999D01*
X1729Y3999D01*
X1730Y3999D01*
X1731Y3999D01*
X1732Y3999D01*
X1733Y3999D01*
X1734Y3999D01*
X1735Y3999D01*
X1736Y3999D01*
X1737Y3999D01*
X1738Y3999D01*
X1739Y3999D01*
X1740Y3999D01*
X1741Y3999D01*
X1742Y3999D01*
X1743Y3999D01*
X1744Y3999D01*
X1745Y3999D01*
X1746Y3999D01*
X1747Y3999D01*
X1748Y3999D01*
X1749Y3999D01*
X1750Y3999D01*
X1751Y3999D01*
X1752Y3999D01*
X1753Y3999D01*
X1754Y3999D01*
X1755Y3999D01*
X1756Y3999D01*
X1757Y3999D01*
X1758Y3999D01*
X1759Y3999D01*
X1760Y3999D01*
X1761Y3999D01*
X1762Y3999D01*
X1763Y3999D01*
X1764Y3999D01*
X1765Y3999D01*
X1766Y3999D01*
X1767Y3999D01*
X1768Y3999D01*
X1769Y3999D01*
X1770Y3999D01*
X1771Y3999D01*
X1772Y3999D01*
X1773Y3999D01*
X1774Y3999D01*
X1775Y3999D01*
X1776Y3999D01*
X1777Y3999D01*
X1778Y3999D01*
X1779Y3999D01*
X1780Y3999D01*
X1781Y3999D01*
X1782Y3999D01*
X1783Y3999D01*
X1784Y3999D01*
X1785Y3999D01*
X1786Y3999D01*
X1787Y3999D01*
X1788Y3999D01*
X1789Y3999D01*
X1790Y3999D01*
X1791Y3999D01*
X1792Y3999D01*
X1793Y3999D01*
X1794Y3999D01*
X1795Y3999D01*
X1796Y3999D01*
X1797Y3999D01*
X1798Y3999D01*
X1799Y3999D01*
X1800Y3999D01*
X1801Y3999D01*
X1802Y3999D01*
X1803Y3999D01*
X1804Y3999D01*
X1805Y3999D01*
X1806Y3999D01*
X1807Y3999D01*
X1808Y3999D01*
X1809Y3999D01*
X1810Y3999D01*
X1811Y3999D01*
X1812Y3999D01*
X1813Y3999D01*
X1814Y3999D01*
X1815Y3999D01*
X1816Y3999D01*
X1817Y3999D01*
X1818Y3999D01*
X1819Y3999D01*
X1820Y3999D01*
X1821Y3999D01*
X1822Y3999D01*
X1823Y3999D01*
X1824Y3999D01*
X1825Y3999D01*
X1826Y3999D01*
X1827Y3999D01*
X1828Y3999D01*
X1829Y3999D01*
X1830Y3999D01*
X1831Y3999D01*
X1832Y3999D01*
X1833Y3999D01*
X1834Y3999D01*
X1835Y3999D01*
X1836Y3999D01*
X1837Y3999D01*
X1838Y3999D01*
X1839Y3999D01*
X1840Y3999D01*
X1841Y3999D01*
X1842Y3999D01*
X1843Y3999D01*
X1844Y3999D01*
X1845Y3999D01*
X1846Y3999D01*
X1847Y3999D01*
X1848Y3999D01*
X1849Y3999D01*
X1850Y3999D01*
X1851Y3999D01*
X1852Y3999D01*
X1853Y3999D01*
X1854Y3999D01*
X1855Y3999D01*
X1856Y3999D01*
X1857Y3999D01*
X1858Y3999D01*
X1859Y3999D01*
X1860Y3999D01*
X1861Y3999D01*
X1862Y3999D01*
X1863Y3999D01*
X1864Y3999D01*
X1865Y3999D01*
X1866Y3999D01*
X1867Y3999D01*
X1868Y3999D01*
X1869Y3999D01*
X1870Y3999D01*
X1871Y3999D01*
X1872Y3999D01*
X1873Y3999D01*
X1874Y3999D01*
X1875Y3999D01*
X1876Y3999D01*
X1877Y3999D01*
X1878Y3999D01*
X1879Y3999D01*
X1880Y3999D01*
X1881Y3999D01*
X1882Y3999D01*
X1883Y3999D01*
X1884Y3999D01*
X1885Y3999D01*
X1886Y3999D01*
X1887Y3999D01*
X1888Y3999D01*
X1889Y3999D01*
X1890Y3999D01*
X1891Y3999D01*
X1892Y3999D01*
X1893Y3999D01*
X1894Y3999D01*
X1895Y3999D01*
X1896Y3999D01*
X1897Y3999D01*
X1898Y3999D01*
X1899Y3999D01*
X1900Y3999D01*
X1901Y3999D01*
X1902Y3999D01*
X1903Y3999D01*
X1904Y3999D01*
X1905Y3999D01*
X1906Y3999D01*
X1907Y3999D01*
X1908Y3999D01*
X1909Y3999D01*
X1910Y3999D01*
X1911Y3999D01*
X1912Y3999D01*
X1913Y3999D01*
X1914Y3999D01*
X1915Y3999D01*
X1916Y3999D01*
X1917Y3999D01*
X1918Y3999D01*
X1919Y3999D01*
X1920Y3999D01*
X1921Y3999D01*
X1922Y3999D01*
X1923Y3999D01*
X1924Y3999D01*
X1925Y3999D01*
X1926Y3999D01*
X1927Y3999D01*
X1928Y3999D01*
X1929Y3999D01*
X1930Y3999D01*
X1931Y3999D01*
X1932Y3999D01*
X1933Y3999D01*
X1934Y3999D01*
X1935Y3999D01*
X1936Y3999D01*
X1937Y3999D01*
X1938Y3999D01*
X1939Y3999D01*
X1940Y3999D01*
X1941Y3999D01*
X1942Y3999D01*
X1943Y3999D01*
X1944Y3999D01*
X1945Y3999D01*
X1946Y3999D01*
X1947Y3999D01*
X1948Y3999D01*
X1949Y3999D01*
X1950Y3999D01*
X1951Y3999D01*
X1952Y3999D01*
X1953Y3999D01*
X1954Y3999D01*
X1955Y3999D01*
X1956Y3999D01*
X1957Y3999D01*
X1958Y3999D01*
X1959Y3999D01*
X1960Y3999D01*
X1961Y3999D01*
X1962Y3999D01*
X1963Y3999D01*
X1964Y3999D01*
X1965Y3999D01*
X1966Y3999D01*
X1967Y3999D01*
X1968Y3999D01*
X1969Y3999D01*
X1970Y3999D01*
X1971Y3999D01*
X1972Y3999D01*
X1973Y3999D01*
X1974Y3999D01*
X1975Y3999D01*
X1976Y3999D01*
X1977Y3999D01*
X1978Y3999D01*
X1979Y3999D01*
X1980Y3999D01*
X1981Y3999D01*
X1982Y3999D01*
X1983Y3999D01*
X1984Y3999D01*
X1985Y3999D01*
X1986Y3999D01*
X1987Y3999D01*
X1988Y3999D01*
X1989Y3999D01*
X1990Y3999D01*
X1991Y3999D01*
X1992Y3999D01*
X1993Y3999D01*
X1994Y3999D01*
X1995Y3999D01*
X1996Y3999D01*
X1997Y3999D01*
X1998Y3999D01*
X1999Y3999D01*
X2000Y3999D01*
X2001Y3999D01*
X2002Y3999D01*
X2003Y3999D01*
X2004Y3999D01*
X2005Y3999D01*
X2006Y3999D01*
X2007Y3999D01*
X2008Y3999D01*
X2009Y3999D01*
X2010Y3999D01*
X2011Y3999D01*
X2012Y3999D01*
X2013Y3999D01*
X2014Y3999D01*
X2015Y3999D01*
X2016Y3999D01*
X2017Y3999D01*
X2018Y3999D01*
X2019Y3999D01*
X2020Y3999D01*
X2021Y3999D01*
X2022Y3999D01*
X2023Y3999D01*
X2024Y3999D01*
X2025Y3999D01*
X2026Y3999D01*
X2027Y3999D01*
X2028Y3999D01*
X2029Y3999D01*
X2030Y3999D01*
X2031Y3999D01*
X2032Y3999D01*
X2033Y3999D01*
X2034Y3999D01*
X2035Y3999D01*
X2036Y3999D01*
X2037Y3999D01*
X2038Y3999D01*
X2039Y3999D01*
X2040Y3999D01*
X2041Y3999D01*
X2042Y3999D01*
X2043Y3999D01*
X2044Y3999D01*
X2045Y3999D01*
X2046Y3999D01*
X2047Y3999D01*
X2048Y3999D01*
X2049Y3999D01*
X2050Y3999D01*
X2051Y3999D01*
X2052Y3999D01*
X2053Y3999D01*
X2054Y3999D01*
X2055Y3999D01*
X2056Y3999D01*
X2057Y3999D01*
X2058Y3999D01*
X2059Y3999D01*
X2060Y3999D01*
X2061Y3999D01*
X2062Y3999D01*
X2063Y3999D01*
X2064Y3999D01*
X2065Y3999D01*
X2066Y3999D01*
X2067Y3999D01*
X2068Y3999D01*
X2069Y3999D01*
X2070Y3999D01*
X2071Y3999D01*
X2072Y3999D01*
X2073Y3999D01*
X2074Y3999D01*
X2075Y3998D01*
X2076Y3998D01*
X2077Y3998D01*
X2078Y3997D01*
X2079Y3997D01*
X2080Y3997D01*
X2081Y3996D01*
X2082Y3996D01*
X2083Y3995D01*
X2084Y3995D01*
X2085Y3994D01*
X2086Y3993D01*
X2087Y3993D01*
X2088Y3992D01*
X2089Y3991D01*
X2090Y3990D01*
X2091Y3989D01*
X2092Y3988D01*
X2093Y3987D01*
X2094Y3986D01*
X2095Y3985D01*
X2095Y3984D01*
X2096Y3983D01*
X2097Y3982D01*
X2097Y3981D01*
X2098Y3980D01*
X2098Y3978D01*
X2099Y3977D01*
X2099Y3976D01*
X2100Y3975D01*
X2100Y3972D01*
X2101Y3971D01*
X2101Y208D01*
X2100Y207D01*
X2099Y206D01*
X2098Y205D01*
X2097Y204D01*
X2096Y203D01*
X2095Y202D01*
X2094Y201D01*
X2093Y200D01*
X2092Y199D01*
X2091Y198D01*
X2090Y197D01*
X2089Y196D01*
X2088Y195D01*
X2087Y194D01*
X2086Y193D01*
X2085Y192D01*
X2084Y191D01*
X2083Y190D01*
X2082Y189D01*
X2081Y188D01*
X2080Y187D01*
X2079Y186D01*
X2078Y185D01*
X2077Y184D01*
X2076Y183D01*
X2075Y182D01*
X2074Y181D01*
X2073Y180D01*
X2072Y179D01*
X2071Y178D01*
X2070Y177D01*
X2069Y176D01*
X2068Y175D01*
X2067Y174D01*
X2066Y173D01*
X2065Y172D01*
X2064Y171D01*
X2063Y170D01*
X2062Y169D01*
X2061Y168D01*
X2060Y167D01*
X2059Y166D01*
X2058Y165D01*
X2057Y164D01*
X2056Y163D01*
X2055Y162D01*
X2054Y161D01*
X2053Y160D01*
X2052Y159D01*
X2051Y158D01*
X2050Y157D01*
X2049Y156D01*
X2048Y155D01*
X2047Y154D01*
X2046Y153D01*
X2045Y152D01*
X2044Y151D01*
X2043Y150D01*
X2042Y149D01*
X2041Y148D01*
X2040Y147D01*
X2039Y146D01*
X2038Y145D01*
X2037Y144D01*
X2036Y143D01*
X2035Y142D01*
X2034Y141D01*
X2033Y140D01*
X2032Y139D01*
X2031Y138D01*
X2030Y137D01*
X2029Y136D01*
X2028Y135D01*
X2027Y134D01*
X2026Y133D01*
X2025Y132D01*
X2024Y131D01*
X2023Y130D01*
X2022Y129D01*
X2021Y128D01*
X2020Y127D01*
X2019Y126D01*
X2018Y125D01*
X2017Y124D01*
X2016Y123D01*
X2015Y122D01*
X2014Y121D01*
X2013Y120D01*
X2012Y119D01*
X2011Y118D01*
X2010Y117D01*
X2009Y116D01*
X2008Y115D01*
X2007Y114D01*
X2006Y113D01*
X2005Y112D01*
X2004Y111D01*
X2003Y110D01*
X2002Y109D01*
X2001Y108D01*
X2000Y108D01*
X1999Y108D01*
X1998Y108D01*
X1997Y108D01*
X1996Y108D01*
X1995Y108D01*
X1994Y108D01*
X1993Y108D01*
X1992Y108D01*
X1991Y108D01*
X1990Y108D01*
X1989Y108D01*
X1988Y108D01*
X1987Y108D01*
X1986Y108D01*
X1985Y108D01*
X1984Y108D01*
X1983Y108D01*
X1982Y108D01*
X1981Y108D01*
X1980Y108D01*
X1979Y108D01*
X1978Y108D01*
X1977Y108D01*
X1976Y108D01*
X1975Y108D01*
X1974Y108D01*
X1973Y108D01*
X1972Y108D01*
X1971Y108D01*
X1970Y108D01*
X1969Y108D01*
X1968Y108D01*
X1967Y108D01*
X1966Y108D01*
X1965Y108D01*
X1964Y108D01*
X1963Y108D01*
X1962Y108D01*
X1961Y108D01*
X1960Y108D01*
X1959Y108D01*
X1958Y108D01*
X1957Y108D01*
X1956Y108D01*
X1955Y108D01*
X1954Y108D01*
X1953Y108D01*
X1952Y108D01*
X1951Y108D01*
X1950Y108D01*
X1949Y108D01*
X1948Y108D01*
X1947Y108D01*
X1946Y108D01*
X1945Y108D01*
X1944Y108D01*
X1943Y108D01*
X1942Y108D01*
X1941Y108D01*
X1940Y108D01*
X1939Y108D01*
X1938Y108D01*
X1937Y108D01*
X1936Y108D01*
X1935Y108D01*
X1934Y108D01*
X1933Y108D01*
X1932Y108D01*
X1931Y108D01*
X1930Y108D01*
X1929Y108D01*
X1928Y108D01*
X1927Y108D01*
X1926Y108D01*
X1925Y108D01*
X1924Y108D01*
X1923Y108D01*
X1922Y108D01*
X1921Y108D01*
X1920Y108D01*
X1919Y108D01*
X1918Y108D01*
X1917Y108D01*
X1916Y108D01*
X1915Y108D01*
X1914Y108D01*
X1913Y108D01*
X1912Y108D01*
X1911Y108D01*
X1910Y108D01*
X1909Y108D01*
X1908Y108D01*
X1907Y108D01*
X1906Y108D01*
X1905Y108D01*
X1904Y108D01*
X1903Y108D01*
X1902Y108D01*
X1901Y108D01*
X1900Y108D01*
X1899Y108D01*
X1898Y108D01*
X1897Y108D01*
X1896Y108D01*
X1895Y108D01*
X1894Y108D01*
X1893Y108D01*
X1892Y108D01*
X1891Y108D01*
X1890Y108D01*
X1889Y108D01*
X1888Y108D01*
X1887Y108D01*
X1886Y108D01*
X1885Y108D01*
X1884Y108D01*
X1883Y108D01*
X1882Y108D01*
X1881Y108D01*
X1880Y108D01*
X1879Y108D01*
X1878Y108D01*
X1877Y108D01*
X1876Y108D01*
X1875Y108D01*
X1874Y108D01*
X1873Y108D01*
X1872Y108D01*
X1871Y108D01*
X1870Y108D01*
X1869Y108D01*
X1868Y108D01*
X1867Y108D01*
X1866Y108D01*
X1865Y108D01*
X1864Y108D01*
X1863Y108D01*
X1862Y108D01*
X1861Y108D01*
X1860Y108D01*
X1859Y108D01*
X1858Y108D01*
X1857Y108D01*
X1856Y108D01*
X1855Y108D01*
X1854Y108D01*
X1853Y108D01*
X1852Y108D01*
X1851Y108D01*
X1850Y108D01*
X1849Y108D01*
X1848Y108D01*
X1847Y108D01*
X1846Y108D01*
X1845Y108D01*
X1844Y108D01*
X1843Y108D01*
X1842Y108D01*
X1841Y108D01*
X1840Y108D01*
X1839Y108D01*
X1838Y108D01*
X1837Y108D01*
X1836Y108D01*
X1835Y108D01*
X1834Y108D01*
X1833Y108D01*
X1832Y108D01*
X1831Y108D01*
X1830Y108D01*
X1829Y108D01*
X1828Y108D01*
X1827Y108D01*
X1826Y108D01*
X1825Y108D01*
X1824Y108D01*
X1823Y108D01*
X1822Y108D01*
X1821Y108D01*
X1820Y108D01*
X1819Y108D01*
X1818Y108D01*
X1817Y108D01*
X1816Y108D01*
X1815Y108D01*
X1814Y108D01*
X1813Y108D01*
X1812Y108D01*
X1811Y108D01*
X1810Y108D01*
X1809Y108D01*
X1808Y108D01*
X1807Y108D01*
X1806Y108D01*
X1805Y108D01*
X1804Y108D01*
X1803Y108D01*
X1802Y108D01*
X1801Y108D01*
X1800Y108D01*
X1799Y108D01*
X1798Y108D01*
X1797Y108D01*
X1796Y108D01*
X1795Y108D01*
X1794Y108D01*
X1793Y108D01*
X1792Y108D01*
X1791Y108D01*
X1790Y108D01*
X1789Y108D01*
X1788Y108D01*
X1787Y108D01*
X1786Y108D01*
X1785Y108D01*
X1784Y108D01*
X1783Y108D01*
X1782Y108D01*
X1781Y108D01*
X1780Y108D01*
X1779Y108D01*
X1778Y108D01*
X1777Y108D01*
X1776Y108D01*
X1775Y108D01*
X1774Y108D01*
X1773Y108D01*
X1772Y108D01*
X1771Y108D01*
X1770Y108D01*
X1769Y108D01*
X1768Y108D01*
X1767Y108D01*
X1766Y108D01*
X1765Y108D01*
X1764Y108D01*
X1763Y108D01*
X1762Y108D01*
X1761Y108D01*
X1760Y108D01*
X1759Y108D01*
X1758Y108D01*
X1757Y108D01*
X1756Y108D01*
X1755Y108D01*
X1754Y108D01*
X1753Y108D01*
X1752Y108D01*
X1751Y108D01*
X1750Y108D01*
X1749Y108D01*
X1748Y108D01*
X1747Y108D01*
X1746Y108D01*
X1745Y108D01*
X1744Y108D01*
X1743Y108D01*
X1742Y108D01*
X1741Y108D01*
X1740Y108D01*
X1739Y108D01*
X1738Y108D01*
X1737Y108D01*
X1736Y108D01*
X1735Y108D01*
X1734Y108D01*
X1733Y108D01*
X1732Y108D01*
X1731Y108D01*
X1730Y108D01*
X1729Y108D01*
X1728Y108D01*
X1727Y108D01*
X1726Y108D01*
X1725Y108D01*
X1724Y108D01*
X1723Y108D01*
X1722Y108D01*
X1721Y108D01*
X1720Y108D01*
X1719Y108D01*
X1718Y108D01*
X1717Y108D01*
X1716Y108D01*
X1715Y108D01*
X1714Y108D01*
X1713Y108D01*
X1712Y108D01*
X1711Y108D01*
X1710Y108D01*
X1709Y108D01*
X1708Y108D01*
X1707Y108D01*
X1706Y108D01*
X1705Y108D01*
X1704Y108D01*
X1703Y108D01*
X1702Y108D01*
X1701Y108D01*
X1700Y108D01*
X1699Y108D01*
X1698Y108D01*
X1697Y108D01*
X1696Y108D01*
X1695Y108D01*
X1694Y108D01*
X1693Y108D01*
X1692Y108D01*
X1691Y108D01*
X1690Y108D01*
X1689Y108D01*
X1688Y108D01*
X1687Y108D01*
X1686Y108D01*
X1685Y108D01*
X1684Y108D01*
X1683Y108D01*
X1682Y108D01*
X1681Y108D01*
X1680Y108D01*
X1679Y108D01*
X1678Y108D01*
X1677Y108D01*
X1676Y108D01*
X1675Y108D01*
X1674Y108D01*
X1673Y108D01*
X1672Y108D01*
X1671Y108D01*
X1670Y108D01*
X1669Y108D01*
X1668Y108D01*
X1667Y108D01*
X1666Y108D01*
X1665Y108D01*
X1664Y108D01*
X1663Y108D01*
X1662Y108D01*
X1661Y108D01*
X1660Y108D01*
X1659Y108D01*
X1658Y108D01*
X1657Y108D01*
X1656Y108D01*
X1655Y108D01*
X1654Y108D01*
X1653Y108D01*
X1652Y108D01*
X1651Y108D01*
X1650Y108D01*
X1649Y108D01*
X1648Y108D01*
X1647Y108D01*
X1646Y108D01*
X1645Y108D01*
X1644Y108D01*
X1643Y108D01*
X1642Y108D01*
X1641Y108D01*
X1640Y108D01*
X1639Y108D01*
X1638Y108D01*
X1637Y108D01*
X1636Y108D01*
X1635Y108D01*
X1634Y108D01*
X1633Y108D01*
X1632Y108D01*
X1631Y108D01*
X1630Y108D01*
X1629Y108D01*
X1628Y108D01*
X1627Y108D01*
X1626Y108D01*
X1625Y108D01*
X1624Y108D01*
X1623Y108D01*
X1622Y108D01*
X1621Y108D01*
X1620Y108D01*
X1619Y108D01*
X1618Y108D01*
X1617Y108D01*
X1616Y108D01*
X1615Y108D01*
X1614Y108D01*
X1613Y108D01*
X1612Y108D01*
X1611Y108D01*
X1610Y108D01*
X1609Y108D01*
X1608Y108D01*
X1607Y108D01*
X1606Y108D01*
X1605Y108D01*
X1604Y108D01*
X1603Y108D01*
X1602Y107D01*
X1601Y106D01*
X1600Y105D01*
X1599Y104D01*
X1598Y103D01*
X1597Y102D01*
X1596Y101D01*
X1595Y100D01*
X1594Y99D01*
X1593Y98D01*
X1592Y97D01*
X1591Y96D01*
X1590Y95D01*
X1589Y94D01*
X1588Y93D01*
X1587Y92D01*
X1586Y91D01*
X1585Y90D01*
X1584Y89D01*
X1583Y88D01*
X1582Y87D01*
X1581Y86D01*
X1580Y85D01*
X1579Y84D01*
X1578Y83D01*
X1577Y82D01*
X1576Y81D01*
X1575Y80D01*
X1574Y79D01*
X1573Y78D01*
X1572Y77D01*
X1571Y76D01*
X1570Y75D01*
X1569Y74D01*
X1568Y73D01*
X1567Y72D01*
X1566Y71D01*
X1565Y70D01*
X1564Y69D01*
X1563Y68D01*
X1562Y67D01*
X1561Y66D01*
X1560Y65D01*
X1559Y64D01*
X1558Y63D01*
X1557Y62D01*
X1556Y61D01*
X1555Y60D01*
X1554Y59D01*
X1553Y58D01*
X1552Y57D01*
X1551Y56D01*
X1550Y55D01*
X1549Y54D01*
X1548Y53D01*
X1547Y52D01*
X1546Y51D01*
X1545Y50D01*
X1544Y49D01*
X1543Y48D01*
X1542Y47D01*
X1541Y46D01*
X1540Y45D01*
X1539Y44D01*
X1538Y43D01*
X1537Y42D01*
X1536Y41D01*
X1535Y40D01*
X1534Y39D01*
X1533Y38D01*
X1532Y37D01*
X1531Y36D01*
X1530Y35D01*
X1529Y34D01*
X1528Y33D01*
X1527Y32D01*
X1526Y31D01*
X1525Y30D01*
X1524Y29D01*
X1523Y28D01*
X1522Y27D01*
X1521Y26D01*
X1520Y25D01*
X1519Y24D01*
X1518Y23D01*
X1517Y22D01*
X1516Y21D01*
X1515Y20D01*
X1514Y19D01*
X1513Y18D01*
X1512Y17D01*
X1511Y16D01*
X1510Y15D01*
X1509Y14D01*
X1508Y13D01*
X1507Y12D01*
X1506Y11D01*
X1505Y10D01*
X1504Y9D01*
X1503Y9D01*
X1502Y9D01*
X1501Y9D01*
X1500Y9D01*
X1499Y9D01*
X1498Y9D01*
X1497Y9D01*
X1496Y9D01*
X1495Y9D01*
X1494Y9D01*
X1493Y9D01*
X1492Y9D01*
X1491Y9D01*
X1490Y9D01*
X1489Y9D01*
X1488Y9D01*
X1487Y9D01*
X1486Y9D01*
X1485Y9D01*
X1484Y9D01*
X1483Y9D01*
X1482Y9D01*
X1481Y9D01*
X1480Y9D01*
X1479Y9D01*
X1478Y9D01*
X1477Y9D01*
X1476Y9D01*
X1475Y9D01*
X1474Y9D01*
X1473Y9D01*
X1472Y9D01*
X1471Y9D01*
X1470Y9D01*
X1469Y9D01*
X1468Y9D01*
X1467Y9D01*
X1466Y9D01*
X1465Y9D01*
X1464Y9D01*
X1463Y9D01*
X1462Y9D01*
X1461Y9D01*
X1460Y9D01*
X1459Y9D01*
X1458Y9D01*
X1457Y9D01*
X1456Y9D01*
X1455Y9D01*
X1454Y9D01*
X1453Y9D01*
X1452Y9D01*
X1451Y9D01*
X1450Y9D01*
X1449Y9D01*
X1448Y9D01*
X1447Y9D01*
X1446Y9D01*
X1445Y9D01*
X1444Y9D01*
X1443Y9D01*
X1442Y9D01*
X1441Y9D01*
X1440Y9D01*
X1439Y9D01*
X1438Y9D01*
X1437Y9D01*
X1436Y9D01*
X1435Y9D01*
X1434Y9D01*
X1433Y9D01*
X1432Y9D01*
X1431Y9D01*
X1430Y9D01*
X1429Y9D01*
X1428Y9D01*
X1427Y9D01*
X1426Y9D01*
X1425Y9D01*
X1424Y9D01*
X1423Y9D01*
X1422Y9D01*
X1421Y9D01*
X1420Y9D01*
X1419Y9D01*
X1418Y9D01*
X1417Y9D01*
X1416Y9D01*
X1415Y9D01*
X1414Y9D01*
X1413Y9D01*
X1412Y9D01*
X1411Y9D01*
X1410Y9D01*
X1409Y9D01*
X1408Y9D01*
X1407Y9D01*
X1406Y9D01*
X1405Y9D01*
X1404Y9D01*
X1403Y9D01*
X1402Y9D01*
X1401Y9D01*
X1400Y9D01*
X1399Y9D01*
X1398Y9D01*
X1397Y9D01*
X1396Y9D01*
X1395Y9D01*
X1394Y9D01*
X1393Y9D01*
X1392Y9D01*
X1391Y9D01*
X1390Y9D01*
X1389Y9D01*
X1388Y9D01*
X1387Y9D01*
X1386Y9D01*
X1385Y9D01*
X1384Y9D01*
X1383Y9D01*
X1382Y9D01*
X1381Y9D01*
X1380Y9D01*
X1379Y9D01*
X1378Y9D01*
X1377Y9D01*
X1376Y9D01*
X1375Y9D01*
X1374Y9D01*
X1373Y9D01*
X1372Y9D01*
X1371Y9D01*
X1370Y9D01*
X1369Y9D01*
X1368Y9D01*
X1367Y9D01*
X1366Y9D01*
X1365Y9D01*
X1364Y9D01*
X1363Y9D01*
X1362Y9D01*
X1361Y9D01*
X1360Y9D01*
X1359Y9D01*
X1358Y9D01*
X1357Y9D01*
X1356Y9D01*
X1355Y9D01*
X1354Y9D01*
X1353Y9D01*
X1352Y9D01*
X1351Y9D01*
X1350Y9D01*
X1349Y9D01*
X1348Y9D01*
X1347Y9D01*
X1346Y9D01*
X1345Y9D01*
X1344Y9D01*
X1343Y9D01*
X1342Y9D01*
X1341Y9D01*
X1340Y9D01*
X1339Y9D01*
X1338Y9D01*
X1337Y9D01*
X1336Y9D01*
X1335Y9D01*
X1334Y9D01*
X1333Y9D01*
X1332Y9D01*
X1331Y9D01*
X1330Y9D01*
X1329Y9D01*
X1328Y9D01*
X1327Y9D01*
X1326Y9D01*
X1325Y9D01*
X1324Y9D01*
X1323Y9D01*
X1322Y9D01*
X1321Y9D01*
X1320Y9D01*
X1319Y9D01*
X1318Y9D01*
X1317Y9D01*
X1316Y9D01*
X1315Y9D01*
X1314Y9D01*
X1313Y9D01*
X1312Y9D01*
X1311Y9D01*
X1310Y9D01*
X1309Y9D01*
X1308Y9D01*
X1307Y9D01*
X1306Y9D01*
X1305Y9D01*
X1304Y9D01*
X1303Y9D01*
X1302Y9D01*
X1301Y9D01*
X1300Y9D01*
X1299Y9D01*
X1298Y9D01*
X1297Y9D01*
X1296Y9D01*
X1295Y9D01*
X1294Y9D01*
X1293Y9D01*
X1292Y9D01*
X1291Y9D01*
X1290Y9D01*
X1289Y9D01*
X1288Y9D01*
X1287Y9D01*
X1286Y9D01*
X1285Y9D01*
X1284Y9D01*
X1283Y9D01*
X1282Y9D01*
X1281Y9D01*
X1280Y9D01*
X1279Y9D01*
X1278Y9D01*
X1277Y9D01*
X1276Y9D01*
X1275Y9D01*
X1274Y9D01*
X1273Y9D01*
X1272Y9D01*
X1271Y9D01*
X1270Y9D01*
X1269Y9D01*
X1268Y9D01*
X1267Y9D01*
X1266Y9D01*
X1265Y9D01*
X1264Y9D01*
X1263Y9D01*
X1262Y9D01*
X1261Y9D01*
X1260Y9D01*
X1259Y9D01*
X1258Y9D01*
X1257Y9D01*
X1256Y9D01*
X1255Y9D01*
X1254Y9D01*
X1253Y9D01*
X1252Y9D01*
X1251Y9D01*
X1250Y9D01*
X1249Y9D01*
X1248Y9D01*
X1247Y9D01*
X1246Y9D01*
X1245Y9D01*
X1244Y9D01*
X1243Y9D01*
X1242Y9D01*
X1241Y9D01*
X1240Y9D01*
X1239Y9D01*
X1238Y9D01*
X1237Y9D01*
X1236Y9D01*
X1235Y9D01*
X1234Y9D01*
X1233Y9D01*
X1232Y9D01*
X1231Y9D01*
X1230Y9D01*
X1229Y9D01*
X1228Y9D01*
X1227Y9D01*
X1226Y9D01*
X1225Y9D01*
X1224Y9D01*
X1223Y9D01*
X1222Y9D01*
X1221Y9D01*
X1220Y9D01*
X1219Y9D01*
X1218Y9D01*
X1217Y9D01*
X1216Y9D01*
X1215Y9D01*
X1214Y9D01*
X1213Y9D01*
X1212Y9D01*
X1211Y9D01*
X1210Y9D01*
X1209Y9D01*
X1208Y9D01*
X1207Y9D01*
X1206Y9D01*
X1205Y9D01*
X1204Y9D01*
X1203Y9D01*
X1202Y9D01*
X1201Y9D01*
X1200Y9D01*
X1199Y9D01*
X1198Y9D01*
X1197Y9D01*
X1196Y9D01*
X1195Y9D01*
X1194Y9D01*
X1193Y9D01*
X1192Y9D01*
X1191Y9D01*
X1190Y9D01*
X1189Y9D01*
X1188Y9D01*
X1187Y9D01*
X1186Y9D01*
X1185Y9D01*
X1184Y9D01*
X1183Y9D01*
X1182Y9D01*
X1181Y9D01*
X1180Y9D01*
X1179Y9D01*
X1178Y9D01*
X1177Y9D01*
X1176Y9D01*
X1175Y9D01*
X1174Y9D01*
X1173Y9D01*
X1172Y9D01*
X1171Y9D01*
X1170Y9D01*
X1169Y9D01*
X1168Y9D01*
X1167Y9D01*
X1166Y9D01*
X1165Y9D01*
X1164Y9D01*
X1163Y9D01*
X1162Y9D01*
X1161Y9D01*
X1160Y9D01*
X1159Y9D01*
X1158Y9D01*
X1157Y9D01*
X1156Y9D01*
X1155Y9D01*
X1154Y9D01*
X1153Y9D01*
X1152Y9D01*
X1151Y9D01*
X1150Y9D01*
X1149Y9D01*
X1148Y9D01*
X1147Y9D01*
X1146Y9D01*
X1145Y9D01*
X1144Y9D01*
X1143Y9D01*
X1142Y9D01*
X1141Y9D01*
X1140Y9D01*
X1139Y9D01*
X1138Y9D01*
X1137Y9D01*
X1136Y9D01*
X1135Y9D01*
X1134Y9D01*
X1133Y9D01*
X1132Y9D01*
X1131Y9D01*
X1130Y9D01*
X1129Y9D01*
X1128Y9D01*
X1127Y9D01*
X1126Y9D01*
X1125Y9D01*
X1124Y9D01*
X1123Y9D01*
X1122Y9D01*
X1121Y9D01*
X1120Y9D01*
X1119Y9D01*
X1118Y9D01*
X1117Y9D01*
X1116Y9D01*
X1115Y9D01*
X1114Y9D01*
X1113Y9D01*
X1112Y9D01*
X1111Y9D01*
X1110Y9D01*
X1109Y9D01*
X1108Y9D01*
X1107Y9D01*
X1106Y9D01*
X1105Y9D01*
X1104Y9D01*
X1103Y9D01*
X1102Y9D01*
X1101Y9D01*
X1100Y9D01*
X1099Y9D01*
X1098Y9D01*
X1097Y9D01*
X1096Y9D01*
X1095Y9D01*
X1094Y9D01*
X1093Y9D01*
X1092Y9D01*
X1091Y9D01*
X1090Y9D01*
X1089Y9D01*
X1088Y9D01*
X1087Y9D01*
X1086Y9D01*
X1085Y9D01*
X1084Y9D01*
X1083Y9D01*
X1082Y9D01*
X1081Y9D01*
X1080Y9D01*
X1079Y9D01*
X1078Y9D01*
X1077Y9D01*
X1076Y9D01*
X1075Y9D01*
X1074Y9D01*
X1073Y9D01*
X1072Y9D01*
X1071Y9D01*
X1070Y9D01*
X1069Y9D01*
X1068Y9D01*
X1067Y9D01*
X1066Y9D01*
X1065Y9D01*
X1064Y9D01*
X1063Y9D01*
X1062Y9D01*
X1061Y9D01*
X1060Y9D01*
X1059Y9D01*
X1058Y9D01*
X1057Y9D01*
X1056Y9D01*
X1055Y9D01*
X1054Y9D01*
X1053Y9D01*
X1052Y9D01*
X1051Y9D01*
X1050Y9D01*
X1049Y9D01*
X1048Y9D01*
X1047Y9D01*
X1046Y9D01*
X1045Y9D01*
X1044Y9D01*
X1043Y9D01*
X1042Y9D01*
X1041Y9D01*
X1040Y9D01*
X1039Y9D01*
X1038Y9D01*
X1037Y9D01*
X1036Y9D01*
X1035Y9D01*
X1034Y9D01*
X1033Y9D01*
X1032Y9D01*
X1031Y9D01*
X1030Y9D01*
X1029Y9D01*
X1028Y9D01*
X1027Y9D01*
X1026Y9D01*
X1025Y9D01*
X1024Y9D01*
X1023Y9D01*
X1022Y9D01*
X1021Y9D01*
X1020Y9D01*
X1019Y9D01*
X1018Y9D01*
X1017Y9D01*
X1016Y9D01*
X1015Y9D01*
X1014Y9D01*
X1013Y9D01*
X1012Y9D01*
X1011Y9D01*
X1010Y9D01*
X1009Y9D01*
X1008Y9D01*
X1007Y9D01*
X1006Y9D01*
X1005Y9D01*
X1004Y9D01*
X1003Y9D01*
X1002Y9D01*
X1001Y9D01*
X1000Y9D01*
X999Y9D01*
X998Y9D01*
X997Y9D01*
X996Y9D01*
X995Y9D01*
X994Y9D01*
X993Y9D01*
X992Y9D01*
X991Y9D01*
X990Y9D01*
X989Y9D01*
X988Y9D01*
X987Y9D01*
X986Y9D01*
X985Y9D01*
X984Y9D01*
X983Y9D01*
X982Y9D01*
X981Y9D01*
X980Y9D01*
X979Y9D01*
X978Y9D01*
X977Y9D01*
X976Y9D01*
X975Y9D01*
X974Y9D01*
X973Y9D01*
X972Y9D01*
X971Y9D01*
X970Y9D01*
X969Y9D01*
X968Y9D01*
X967Y9D01*
X966Y9D01*
X965Y9D01*
X964Y9D01*
X963Y9D01*
X962Y9D01*
X961Y9D01*
X960Y9D01*
X959Y9D01*
X958Y9D01*
X957Y9D01*
X956Y9D01*
X955Y9D01*
X954Y9D01*
X953Y9D01*
X952Y9D01*
X951Y9D01*
X950Y9D01*
X949Y9D01*
X948Y9D01*
X947Y9D01*
X946Y9D01*
X945Y9D01*
X944Y9D01*
X943Y9D01*
X942Y9D01*
X941Y9D01*
X940Y9D01*
X939Y9D01*
X938Y9D01*
X937Y9D01*
X936Y9D01*
X935Y9D01*
X934Y9D01*
X933Y9D01*
X932Y9D01*
X931Y9D01*
X930Y9D01*
X929Y9D01*
X928Y9D01*
X927Y9D01*
X926Y9D01*
X925Y9D01*
X924Y9D01*
X923Y9D01*
X922Y9D01*
X921Y9D01*
X920Y9D01*
X919Y9D01*
X918Y9D01*
X917Y9D01*
X916Y9D01*
X915Y9D01*
X914Y9D01*
X913Y9D01*
X912Y9D01*
X911Y9D01*
X910Y9D01*
X909Y9D01*
X908Y9D01*
X907Y9D01*
X906Y9D01*
X905Y9D01*
X904Y9D01*
X903Y9D01*
X902Y9D01*
X901Y9D01*
X900Y9D01*
X899Y9D01*
X898Y9D01*
X897Y9D01*
X896Y9D01*
X895Y9D01*
X894Y9D01*
X893Y9D01*
X892Y9D01*
X891Y9D01*
X890Y9D01*
X889Y9D01*
X888Y9D01*
X887Y9D01*
X886Y9D01*
X885Y9D01*
X884Y9D01*
X883Y9D01*
X882Y9D01*
X881Y9D01*
X880Y9D01*
X879Y9D01*
X878Y9D01*
X877Y9D01*
X876Y9D01*
X875Y9D01*
X874Y9D01*
X873Y9D01*
X872Y9D01*
X871Y9D01*
X870Y9D01*
X869Y9D01*
X868Y9D01*
X867Y9D01*
X866Y9D01*
X865Y9D01*
X864Y9D01*
X863Y9D01*
X862Y9D01*
X861Y9D01*
X860Y9D01*
X859Y9D01*
X858Y9D01*
X857Y9D01*
X856Y9D01*
X855Y9D01*
X854Y9D01*
X853Y9D01*
X852Y9D01*
X851Y9D01*
X850Y9D01*
X849Y9D01*
X848Y9D01*
X847Y9D01*
X846Y9D01*
X845Y9D01*
X844Y9D01*
X843Y9D01*
X842Y9D01*
X841Y9D01*
X840Y9D01*
X839Y9D01*
X838Y9D01*
X837Y9D01*
X836Y9D01*
X835Y9D01*
X834Y9D01*
X833Y9D01*
X832Y9D01*
X831Y9D01*
X830Y9D01*
X829Y9D01*
X828Y9D01*
X827Y9D01*
X826Y9D01*
X825Y9D01*
X824Y9D01*
X823Y9D01*
X822Y9D01*
X821Y9D01*
X820Y9D01*
X819Y9D01*
X818Y9D01*
X817Y9D01*
X816Y9D01*
X815Y9D01*
X814Y9D01*
X813Y9D01*
X812Y9D01*
X811Y9D01*
X810Y9D01*
X809Y9D01*
X808Y9D01*
X807Y9D01*
X806Y9D01*
X805Y9D01*
X804Y9D01*
X803Y9D01*
X802Y9D01*
X801Y9D01*
X800Y9D01*
X799Y9D01*
X798Y9D01*
X797Y9D01*
X796Y9D01*
X795Y9D01*
X794Y9D01*
X793Y9D01*
X792Y9D01*
X791Y9D01*
X790Y9D01*
X789Y9D01*
X788Y9D01*
X787Y9D01*
X786Y9D01*
X785Y9D01*
X784Y9D01*
X783Y9D01*
X782Y9D01*
X781Y9D01*
X780Y9D01*
X779Y9D01*
X778Y9D01*
X777Y9D01*
X776Y9D01*
X775Y9D01*
X774Y9D01*
X773Y9D01*
X772Y9D01*
X771Y9D01*
X770Y9D01*
X769Y9D01*
X768Y9D01*
X767Y9D01*
X766Y9D01*
X765Y9D01*
X764Y9D01*
X763Y9D01*
X762Y9D01*
X761Y9D01*
X760Y9D01*
X759Y9D01*
X758Y9D01*
X757Y9D01*
X756Y9D01*
X755Y9D01*
X754Y9D01*
X753Y9D01*
X752Y9D01*
X751Y9D01*
X750Y9D01*
X749Y9D01*
X748Y9D01*
X747Y9D01*
X746Y9D01*
X745Y9D01*
X744Y9D01*
X743Y9D01*
X742Y9D01*
X741Y9D01*
X740Y9D01*
X739Y9D01*
X738Y9D01*
X737Y9D01*
X736Y9D01*
X735Y9D01*
X734Y9D01*
X733Y9D01*
X732Y9D01*
X731Y9D01*
X730Y9D01*
X729Y9D01*
X728Y9D01*
X727Y9D01*
X726Y9D01*
X725Y9D01*
X724Y9D01*
X723Y9D01*
X722Y9D01*
X721Y9D01*
X720Y9D01*
X719Y9D01*
X718Y9D01*
X717Y9D01*
X716Y9D01*
X715Y9D01*
X714Y9D01*
X713Y9D01*
X712Y9D01*
X711Y9D01*
X710Y9D01*
X709Y9D01*
X708Y9D01*
X707Y9D01*
X706Y9D01*
X705Y9D01*
X704Y9D01*
X703Y9D01*
X702Y9D01*
X701Y9D01*
X700Y9D01*
X699Y9D01*
X698Y9D01*
X697Y9D01*
X696Y9D01*
X695Y9D01*
X694Y9D01*
X693Y9D01*
X692Y9D01*
X691Y9D01*
X690Y9D01*
X689Y9D01*
X688Y9D01*
X687Y9D01*
X686Y9D01*
X685Y9D01*
X684Y9D01*
X683Y9D01*
X682Y9D01*
X681Y9D01*
X680Y9D01*
X679Y9D01*
X678Y9D01*
X677Y9D01*
X676Y9D01*
X675Y9D01*
X674Y9D01*
X673Y9D01*
X672Y9D01*
X671Y9D01*
X670Y9D01*
X669Y9D01*
X668Y9D01*
X667Y9D01*
X666Y9D01*
X665Y9D01*
X664Y9D01*
X663Y9D01*
X662Y9D01*
X661Y9D01*
X660Y9D01*
X659Y9D01*
X658Y9D01*
X657Y9D01*
X656Y9D01*
X655Y9D01*
X654Y9D01*
X653Y9D01*
X652Y9D01*
X651Y9D01*
X650Y9D01*
X649Y9D01*
X648Y9D01*
X647Y9D01*
X646Y9D01*
X645Y9D01*
X644Y9D01*
X643Y9D01*
X642Y9D01*
X641Y9D01*
X640Y9D01*
X639Y9D01*
X638Y9D01*
X637Y9D01*
X636Y9D01*
X635Y9D01*
X634Y9D01*
X633Y9D01*
X632Y9D01*
X631Y9D01*
X630Y9D01*
X629Y9D01*
X628Y9D01*
X627Y9D01*
X626Y9D01*
X625Y9D01*
X624Y9D01*
X623Y9D01*
X622Y9D01*
X621Y9D01*
X620Y9D01*
X619Y9D01*
X618Y9D01*
X617Y9D01*
X616Y9D01*
X615Y9D01*
X614Y9D01*
X613Y9D01*
X612Y9D01*
X611Y9D01*
X610Y9D01*
X609Y9D01*
X608Y9D01*
X607Y9D01*
X606Y9D01*
X605Y9D01*
X604Y9D01*
X603Y9D01*
X602Y9D01*
X601Y9D01*
X600Y9D01*
X599Y9D01*
X598Y9D01*
X597Y9D01*
X596Y9D01*
X595Y9D01*
X594Y9D01*
X593Y9D01*
X592Y9D01*
X591Y9D01*
X590Y9D01*
X589Y9D01*
X588Y9D01*
X587Y9D01*
X586Y9D01*
X585Y9D01*
X584Y9D01*
X583Y9D01*
X582Y9D01*
X581Y9D01*
X580Y9D01*
X579Y9D01*
X578Y9D01*
X577Y9D01*
X576Y9D01*
X575Y9D01*
X574Y9D01*
X573Y9D01*
X572Y9D01*
X571Y9D01*
X570Y9D01*
X569Y9D01*
X568Y9D01*
X567Y9D01*
X566Y9D01*
X565Y9D01*
X564Y9D01*
X563Y9D01*
X562Y9D01*
X561Y9D01*
X560Y9D01*
X559Y9D01*
X558Y9D01*
X557Y9D01*
X556Y9D01*
X555Y9D01*
X554Y9D01*
X553Y9D01*
X552Y9D01*
X551Y9D01*
X550Y9D01*
X549Y9D01*
X548Y9D01*
X547Y9D01*
X546Y9D01*
X545Y9D01*
X544Y9D01*
X543Y9D01*
X542Y9D01*
X541Y9D01*
X540Y9D01*
X539Y9D01*
X538Y9D01*
X537Y9D01*
X536Y9D01*
X535Y9D01*
X534Y9D01*
X533Y9D01*
X532Y9D01*
X531Y9D01*
X530Y9D01*
X529Y9D01*
X528Y9D01*
X527Y9D01*
X526Y9D01*
X525Y9D01*
X524Y9D01*
X523Y9D01*
X522Y9D01*
X521Y9D01*
X520Y9D01*
X519Y9D01*
X518Y9D01*
X517Y9D01*
X516Y9D01*
X515Y9D01*
X514Y9D01*
X513Y9D01*
X512Y9D01*
X511Y9D01*
X510Y9D01*
X509Y9D01*
X508Y9D01*
X507Y9D01*
X506Y9D01*
X505Y9D01*
X504Y9D01*
X503Y9D01*
X502Y9D01*
X501Y9D01*
X500Y9D01*
X499Y9D01*
X498Y9D01*
X497Y9D01*
X496Y9D01*
X495Y9D01*
X494Y9D01*
X493Y9D01*
X492Y9D01*
X491Y9D01*
X490Y9D01*
X489Y9D01*
X488Y9D01*
X487Y9D01*
X486Y9D01*
X485Y9D01*
X484Y9D01*
X483Y9D01*
X482Y9D01*
X481Y9D01*
X480Y9D01*
X479Y9D01*
X478Y9D01*
X477Y9D01*
X476Y9D01*
X475Y9D01*
X474Y9D01*
X473Y9D01*
X472Y9D01*
X471Y9D01*
X470Y9D01*
X469Y9D01*
X468Y9D01*
X467Y9D01*
X466Y9D01*
X465Y9D01*
X464Y9D01*
X463Y9D01*
X462Y9D01*
X461Y9D01*
X460Y9D01*
X459Y9D01*
X458Y9D01*
X457Y9D01*
X456Y9D01*
X455Y9D01*
X454Y9D01*
X453Y9D01*
X452Y9D01*
X451Y9D01*
X450Y9D01*
X449Y9D01*
X448Y9D01*
X447Y9D01*
X446Y9D01*
X445Y9D01*
X444Y9D01*
X443Y9D01*
X442Y9D01*
X441Y9D01*
X440Y9D01*
X439Y9D01*
X438Y9D01*
X437Y9D01*
X436Y9D01*
X435Y9D01*
X434Y9D01*
X433Y9D01*
X432Y9D01*
X431Y9D01*
X430Y9D01*
X429Y9D01*
X428Y9D01*
X427Y9D01*
X426Y9D01*
X425Y9D01*
X424Y9D01*
X423Y9D01*
X422Y9D01*
X421Y9D01*
X420Y9D01*
X419Y9D01*
X418Y9D01*
X417Y9D01*
X416Y9D01*
X415Y9D01*
X414Y9D01*
X413Y9D01*
X412Y9D01*
X411Y9D01*
X410Y9D01*
X409Y9D01*
X408Y9D01*
X407Y9D01*
X406Y9D01*
X405Y9D01*
X404Y9D01*
X403Y9D01*
X402Y9D01*
X401Y9D01*
X400Y9D01*
X399Y9D01*
X398Y9D01*
X397Y9D01*
X396Y9D01*
X395Y9D01*
X394Y9D01*
X393Y9D01*
X392Y9D01*
X391Y9D01*
X390Y9D01*
X389Y9D01*
X388Y9D01*
X387Y9D01*
X386Y9D01*
X385Y9D01*
X384Y9D01*
X383Y9D01*
X382Y9D01*
X381Y9D01*
X380Y9D01*
X379Y9D01*
X378Y9D01*
X377Y9D01*
X376Y9D01*
X375Y9D01*
X374Y9D01*
X373Y9D01*
X372Y9D01*
X371Y9D01*
X370Y9D01*
X369Y9D01*
X368Y9D01*
X367Y9D01*
X366Y9D01*
X365Y9D01*
X364Y9D01*
X363Y9D01*
X362Y9D01*
X361Y9D01*
X360Y9D01*
X359Y9D01*
X358Y9D01*
X357Y9D01*
X356Y9D01*
X355Y9D01*
X354Y9D01*
X353Y9D01*
X352Y9D01*
X351Y9D01*
X350Y9D01*
X349Y9D01*
X348Y9D01*
X347Y9D01*
X346Y9D01*
X345Y9D01*
X344Y9D01*
X343Y9D01*
X342Y9D01*
X341Y9D01*
X340Y9D01*
X339Y9D01*
X338Y9D01*
X337Y9D01*
X336Y9D01*
X335Y9D01*
X334Y9D01*
X333Y9D01*
X332Y9D01*
X331Y9D01*
X330Y9D01*
X329Y9D01*
X328Y9D01*
X327Y9D01*
X326Y9D01*
X325Y9D01*
X324Y9D01*
X323Y9D01*
X322Y9D01*
X321Y9D01*
X320Y9D01*
X319Y9D01*
X318Y9D01*
X317Y9D01*
X316Y9D01*
X315Y9D01*
X314Y9D01*
X313Y9D01*
X312Y9D01*
X311Y9D01*
X310Y9D01*
X309Y9D01*
X308Y9D01*
X307Y9D01*
X306Y9D01*
X305Y9D01*
X304Y9D01*
X303Y9D01*
X302Y9D01*
X301Y9D01*
X300Y9D01*
X299Y9D01*
X298Y9D01*
X297Y9D01*
X296Y9D01*
X295Y9D01*
X294Y9D01*
X293Y9D01*
X292Y9D01*
X291Y9D01*
X290Y9D01*
X289Y9D01*
X288Y9D01*
X287Y9D01*
X286Y9D01*
X285Y9D01*
X284Y9D01*
X283Y9D01*
X282Y9D01*
X281Y9D01*
X280Y9D01*
X279Y9D01*
X278Y9D01*
X277Y9D01*
X276Y9D01*
X275Y9D01*
X274Y9D01*
X273Y9D01*
X272Y9D01*
X271Y9D01*
X270Y9D01*
X269Y9D01*
X268Y9D01*
X267Y9D01*
X266Y9D01*
X265Y9D01*
X264Y9D01*
X263Y9D01*
X262Y9D01*
X261Y9D01*
X260Y9D01*
X259Y9D01*
X258Y9D01*
X257Y9D01*
X256Y9D01*
X255Y9D01*
X254Y9D01*
X253Y9D01*
X252Y9D01*
X251Y9D01*
X250Y9D01*
X249Y9D01*
X248Y9D01*
X247Y9D01*
X246Y9D01*
X245Y9D01*
X244Y9D01*
X243Y9D01*
X242Y9D01*
X241Y9D01*
X240Y9D01*
X239Y9D01*
X238Y9D01*
X237Y9D01*
X236Y9D01*
X235Y9D01*
X234Y9D01*
X233Y9D01*
X232Y9D01*
X231Y9D01*
X230Y9D01*
X229Y9D01*
X228Y9D01*
X227Y9D01*
X226Y9D01*
X225Y9D01*
X224Y9D01*
X223Y9D01*
X222Y9D01*
X221Y9D01*
X220Y9D01*
X219Y9D01*
X218Y9D01*
X217Y9D01*
X216Y9D01*
X215Y9D01*
X214Y9D01*
X213Y9D01*
X212Y9D01*
X211Y9D01*
X210Y9D01*
X209Y9D01*
X208Y9D01*
X207Y9D01*
X206Y9D01*
X205Y9D01*
X204Y9D01*
X203Y9D01*
X202Y9D01*
X201Y9D01*
X200Y9D01*
X199Y9D01*
X198Y9D01*
X197Y9D01*
X196Y9D01*
X195Y9D01*
X194Y9D01*
X193Y9D01*
X192Y9D01*
X191Y9D01*
X190Y9D01*
X189Y9D01*
X188Y9D01*
X187Y9D01*
X186Y9D01*
X185Y9D01*
X184Y9D01*
X183Y9D01*
X182Y9D01*
X181Y9D01*
X180Y9D01*
X179Y9D01*
X178Y9D01*
X177Y9D01*
X176Y9D01*
X175Y9D01*
X174Y9D01*
X173Y9D01*
X172Y9D01*
X171Y9D01*
X170Y9D01*
X169Y9D01*
X168Y9D01*
X167Y9D01*
X166Y9D01*
X165Y9D01*
X164Y9D01*
X163Y9D01*
X162Y9D01*
X161Y9D01*
X160Y9D01*
X159Y9D01*
X158Y9D01*
X157Y10D01*
X156Y11D01*
X155Y12D01*
X154Y13D01*
X153Y14D01*
X152Y15D01*
X151Y16D01*
X150Y17D01*
X149Y18D01*
X148Y19D01*
X147Y20D01*
X147Y21D01*
X146Y22D01*
X145Y23D01*
X144Y24D01*
X143Y25D01*
X142Y26D01*
X141Y27D01*
X140Y28D01*
X139Y29D01*
X138Y30D01*
X137Y31D01*
X136Y32D01*
X135Y33D01*
X134Y34D01*
X133Y35D01*
X132Y36D01*
X131Y37D01*
X130Y38D01*
X129Y39D01*
X128Y40D01*
X127Y41D01*
X126Y42D01*
X125Y43D01*
X124Y44D01*
X123Y45D01*
X122Y46D01*
X121Y47D01*
X120Y48D01*
X119Y49D01*
X118Y50D01*
X117Y51D01*
X116Y52D01*
X115Y53D01*
X114Y54D01*
X113Y55D01*
X112Y56D01*
X111Y57D01*
X110Y58D01*
X109Y59D01*
X108Y60D01*
X107Y61D01*
X106Y62D01*
X105Y63D01*
X104Y64D01*
X103Y65D01*
X102Y66D01*
X101Y67D01*
X100Y68D01*
X99Y69D01*
X98Y70D01*
X97Y71D01*
X96Y72D01*
X95Y73D01*
X94Y74D01*
X93Y75D01*
X92Y76D01*
X91Y77D01*
X90Y78D01*
X89Y79D01*
X88Y80D01*
X87Y81D01*
X86Y82D01*
X85Y83D01*
X84Y84D01*
X83Y85D01*
X82Y86D01*
X81Y87D01*
X80Y88D01*
X79Y89D01*
X78Y90D01*
X77Y91D01*
X76Y92D01*
X75Y93D01*
X74Y94D01*
X73Y95D01*
X72Y96D01*
X71Y97D01*
X70Y98D01*
X69Y99D01*
X68Y100D01*
X67Y101D01*
X66Y102D01*
X65Y103D01*
X64Y104D01*
X63Y105D01*
X62Y106D01*
X61Y107D01*
X60Y108D01*
X59Y108D01*
X58Y108D01*
X57Y108D01*
X56Y108D01*
X55Y108D01*
X54Y108D01*
X53Y108D01*
X52Y108D01*
X51Y108D01*
X50Y108D01*
X49Y108D01*
X48Y108D01*
X47Y108D01*
X46Y108D01*
X45Y108D01*
X44Y108D01*
X43Y108D01*
X42Y108D01*
X41Y108D01*
X40Y109D01*
X39Y109D01*
X38Y109D01*
X37Y109D01*
X36Y109D01*
X35Y110D01*
X34Y110D01*
X33Y110D01*
X32Y111D01*
X31Y111D01*
X30Y111D01*
X29Y112D01*
X28Y112D01*
X27Y113D01*
X26Y113D01*
X25Y114D01*
X24Y115D01*
X23Y116D01*
X22Y116D01*
X21Y117D01*
X20Y118D01*
X19Y119D01*
X18Y120D01*
X17Y121D01*
X17Y122D01*
X16Y123D01*
X15Y124D01*
X15Y125D01*
X14Y126D01*
X14Y127D01*
X13Y128D01*
X13Y129D01*
X12Y130D01*
X12Y131D01*
X11Y132D01*
X11Y135D01*
X10Y136D01*
X10Y3972D01*
X11Y3973D01*
X11Y3975D01*
X12Y3976D01*
X12Y3978D01*
X13Y3979D01*
X13Y3980D01*
X14Y3981D01*
X14Y3982D01*
X15Y3983D01*
X16Y3984D01*
X16Y3985D01*
X17Y3986D01*
X18Y3987D01*
X19Y3988D01*
X19Y3989D01*
X20Y3989D01*
X21Y3990D01*
X22Y3991D01*
X23Y3992D01*
X24Y3993D01*
X25Y3994D01*
X26Y3994D01*
X27Y3995D01*
X28Y3995D01*
X29Y3996D01*
X30Y3996D01*
X31Y3997D01*
X32Y3997D01*
X33Y3997D01*
X34Y3998D01*
X35Y3998D01*
X36Y3998D01*
X37Y3999D01*
D02*
G04 End of contour*
M02*