G04 MADE WITH FRITZING*
G04 WWW.FRITZING.ORG*
G04 DOUBLE SIDED*
G04 HOLES PLATED*
G04 CONTOUR ON CENTER OF CONTOUR VECTOR*
%ASAXBY*%
%FSLAX23Y23*%
%MOIN*%
%OFA0B0*%
%SFA1.0B1.0*%
%ADD10C,0.085000*%
%ADD11C,0.082917*%
%ADD12C,0.088000*%
%ADD13C,0.089370*%
%ADD14C,0.097244*%
%ADD15C,0.167480*%
%ADD16C,0.084000*%
%ADD17C,0.085433*%
%ADD18C,0.147795*%
%ADD19R,0.085000X0.085000*%
%LNMASK1*%
G90*
G70*
G54D10*
X906Y3052D03*
X1206Y3052D03*
X906Y2952D03*
X1206Y2952D03*
X906Y2852D03*
X1206Y2852D03*
X906Y2752D03*
X1206Y2752D03*
X906Y2652D03*
X1206Y2652D03*
X906Y2552D03*
X1206Y2552D03*
X906Y2452D03*
X1206Y2452D03*
X906Y2352D03*
X1206Y2352D03*
X906Y2252D03*
X1206Y2252D03*
X906Y2152D03*
X1206Y2152D03*
X906Y2052D03*
X1206Y2052D03*
X906Y1952D03*
X1206Y1952D03*
X906Y1852D03*
X1206Y1852D03*
X906Y1752D03*
X1206Y1752D03*
X906Y1652D03*
X1206Y1652D03*
X906Y1552D03*
X1206Y1552D03*
X906Y1452D03*
X1206Y1452D03*
X906Y1352D03*
X1206Y1352D03*
X906Y1252D03*
X1206Y1252D03*
X906Y1152D03*
X1206Y1152D03*
X906Y1052D03*
X1206Y1052D03*
X906Y952D03*
X1206Y952D03*
X906Y852D03*
X1206Y852D03*
X906Y752D03*
X1206Y752D03*
G54D11*
X103Y1011D03*
X103Y2611D03*
X103Y911D03*
X103Y811D03*
X103Y711D03*
X103Y611D03*
X1503Y311D03*
X103Y511D03*
X103Y411D03*
X2003Y2571D03*
X103Y2011D03*
X103Y1911D03*
X103Y1811D03*
X103Y1711D03*
X703Y311D03*
X103Y1611D03*
X103Y1511D03*
X103Y1411D03*
X103Y1311D03*
X2003Y1811D03*
X1903Y311D03*
X1103Y311D03*
X303Y311D03*
X2003Y2971D03*
X103Y2211D03*
X2003Y2211D03*
X1703Y311D03*
X1303Y311D03*
X903Y311D03*
X2003Y611D03*
X503Y311D03*
X2003Y711D03*
X2003Y811D03*
X2003Y911D03*
X2003Y1011D03*
X2003Y1111D03*
X2003Y1211D03*
X2003Y1311D03*
X2003Y3171D03*
X2003Y2771D03*
X2003Y2371D03*
X103Y2811D03*
X103Y2411D03*
X2003Y1611D03*
X2003Y2011D03*
X2003Y311D03*
X1803Y311D03*
X1603Y311D03*
X1403Y311D03*
X1203Y311D03*
X1003Y311D03*
X803Y311D03*
X603Y311D03*
X403Y311D03*
X2003Y3271D03*
X2003Y3071D03*
X2003Y2871D03*
X2003Y2671D03*
X2003Y2471D03*
X103Y2911D03*
X103Y2711D03*
X103Y2511D03*
X103Y2311D03*
X2003Y1511D03*
X2003Y1711D03*
X2003Y1911D03*
X2003Y2111D03*
X2003Y211D03*
X1903Y211D03*
X1803Y211D03*
X1703Y211D03*
X1603Y211D03*
X1503Y211D03*
X1403Y211D03*
X1303Y211D03*
X1203Y211D03*
X1103Y211D03*
X1003Y211D03*
X903Y211D03*
X803Y211D03*
X703Y211D03*
X603Y211D03*
X503Y211D03*
X403Y211D03*
X303Y211D03*
X103Y1111D03*
G54D12*
X489Y3053D03*
X489Y2953D03*
X489Y2853D03*
X489Y2753D03*
X489Y2653D03*
X489Y2553D03*
X489Y2453D03*
X489Y2353D03*
X489Y2253D03*
X489Y2153D03*
X489Y2053D03*
X489Y1953D03*
X489Y1853D03*
X489Y1753D03*
X489Y1653D03*
X489Y1553D03*
X489Y1453D03*
X489Y1353D03*
X489Y1253D03*
X489Y1153D03*
X489Y1053D03*
X489Y953D03*
X489Y853D03*
X489Y753D03*
G54D13*
X1591Y3053D03*
X1591Y2953D03*
X1591Y2853D03*
X1591Y2753D03*
X1591Y2653D03*
X1591Y2553D03*
X1591Y2453D03*
X1591Y2353D03*
X1591Y2253D03*
X1591Y2153D03*
X1591Y2053D03*
X1591Y1953D03*
X1591Y1853D03*
X1591Y1753D03*
X1591Y1653D03*
X1591Y1553D03*
X1591Y1453D03*
X1591Y1353D03*
X1591Y1253D03*
X1591Y1153D03*
X1591Y1053D03*
X1591Y953D03*
X1591Y853D03*
X1591Y753D03*
G54D14*
X741Y3054D03*
X741Y2954D03*
X741Y2854D03*
X741Y2754D03*
X741Y2654D03*
X741Y2554D03*
X741Y2454D03*
X741Y2354D03*
X741Y2254D03*
X741Y2154D03*
X741Y2054D03*
X741Y1954D03*
X741Y1854D03*
X741Y1754D03*
X741Y1654D03*
X741Y1554D03*
X741Y1454D03*
X741Y1354D03*
X741Y1254D03*
X741Y1154D03*
X741Y1054D03*
X741Y954D03*
X741Y854D03*
X741Y754D03*
X1359Y3054D03*
X1359Y2954D03*
X1359Y2854D03*
X1359Y2754D03*
X1359Y2654D03*
X1359Y2554D03*
X1359Y2454D03*
X1359Y2354D03*
X1359Y2254D03*
X1359Y2154D03*
X1359Y2054D03*
X1359Y1954D03*
X1359Y1854D03*
X1359Y1754D03*
X1359Y1654D03*
X1359Y1554D03*
X1359Y1454D03*
X1359Y1354D03*
X1359Y1254D03*
X1359Y1154D03*
X1359Y1054D03*
X1359Y954D03*
X1359Y854D03*
X1359Y754D03*
G54D12*
X1863Y457D03*
X304Y458D03*
X1836Y3256D03*
X253Y3189D03*
G54D15*
X162Y3811D03*
X363Y3811D03*
G54D12*
X1891Y1610D03*
X1891Y1510D03*
X1450Y71D03*
X1350Y71D03*
X1250Y71D03*
X1150Y71D03*
X1050Y71D03*
X950Y71D03*
X850Y71D03*
X750Y71D03*
X650Y71D03*
X103Y3153D03*
X103Y3053D03*
X2021Y3807D03*
X2021Y3707D03*
X2021Y3607D03*
G54D16*
X233Y3539D03*
X489Y3539D03*
X233Y3361D03*
X489Y3361D03*
X233Y3539D03*
X489Y3539D03*
X233Y3361D03*
X489Y3361D03*
G54D12*
X1584Y3256D03*
G54D17*
X648Y3212D03*
X1119Y3051D03*
G54D18*
X2013Y464D03*
X99Y209D03*
X2013Y3417D03*
X103Y3453D03*
G54D17*
X993Y3051D03*
G54D19*
X906Y3052D03*
G04 End of Mask1*
M02*