G04 MADE WITH FRITZING*
G04 WWW.FRITZING.ORG*
G04 DOUBLE SIDED*
G04 HOLES PLATED*
G04 CONTOUR ON CENTER OF CONTOUR VECTOR*
%ASAXBY*%
%FSLAX23Y23*%
%MOIN*%
%OFA0B0*%
%SFA1.0B1.0*%
%ADD10C,0.075000*%
%ADD11C,0.072917*%
%ADD12C,0.078000*%
%ADD13C,0.079370*%
%ADD14C,0.087244*%
%ADD15C,0.157480*%
%ADD16C,0.074000*%
%ADD17C,0.075433*%
%ADD18R,0.075000X0.075000*%
%ADD19C,0.048000*%
%ADD20C,0.016000*%
%ADD21C,0.012000*%
%ADD22C,0.024000*%
%LNCOPPER1*%
G90*
G70*
G54D10*
X906Y3052D03*
X1206Y3052D03*
X906Y2952D03*
X1206Y2952D03*
X906Y2852D03*
X1206Y2852D03*
X906Y2752D03*
X1206Y2752D03*
X906Y2652D03*
X1206Y2652D03*
X906Y2552D03*
X1206Y2552D03*
X906Y2452D03*
X1206Y2452D03*
X906Y2352D03*
X1206Y2352D03*
X906Y2252D03*
X1206Y2252D03*
X906Y2152D03*
X1206Y2152D03*
X906Y2052D03*
X1206Y2052D03*
X906Y1952D03*
X1206Y1952D03*
X906Y1852D03*
X1206Y1852D03*
X906Y1752D03*
X1206Y1752D03*
X906Y1652D03*
X1206Y1652D03*
X906Y1552D03*
X1206Y1552D03*
X906Y1452D03*
X1206Y1452D03*
X906Y1352D03*
X1206Y1352D03*
X906Y1252D03*
X1206Y1252D03*
X906Y1152D03*
X1206Y1152D03*
X906Y1052D03*
X1206Y1052D03*
X906Y952D03*
X1206Y952D03*
X906Y852D03*
X1206Y852D03*
X906Y752D03*
X1206Y752D03*
G54D11*
X103Y1011D03*
X103Y2611D03*
X103Y911D03*
X103Y811D03*
X103Y711D03*
X103Y611D03*
X1503Y311D03*
X103Y511D03*
X103Y411D03*
X2003Y2571D03*
X103Y2011D03*
X103Y1911D03*
X103Y1811D03*
X103Y1711D03*
X703Y311D03*
X103Y1611D03*
X103Y1511D03*
X103Y1411D03*
X103Y1311D03*
X2003Y1811D03*
X1903Y311D03*
X1103Y311D03*
X303Y311D03*
X2003Y2971D03*
X103Y2211D03*
X2003Y2211D03*
X1703Y311D03*
X1303Y311D03*
X903Y311D03*
X2003Y611D03*
X503Y311D03*
X2003Y711D03*
X2003Y811D03*
X2003Y911D03*
X2003Y1011D03*
X2003Y1111D03*
X2003Y1211D03*
X2003Y1311D03*
X2003Y3171D03*
X2003Y2771D03*
X2003Y2371D03*
X103Y2811D03*
X103Y2411D03*
X2003Y1611D03*
X2003Y2011D03*
X2003Y311D03*
X1803Y311D03*
X1603Y311D03*
X1403Y311D03*
X1203Y311D03*
X1003Y311D03*
X803Y311D03*
X603Y311D03*
X403Y311D03*
X2003Y3271D03*
X2003Y3071D03*
X2003Y2871D03*
X2003Y2671D03*
X2003Y2471D03*
X103Y2911D03*
X103Y2711D03*
X103Y2511D03*
X103Y2311D03*
X2003Y1511D03*
X2003Y1711D03*
X2003Y1911D03*
X2003Y2111D03*
X2003Y211D03*
X1903Y211D03*
X1803Y211D03*
X1703Y211D03*
X1603Y211D03*
X1503Y211D03*
X1403Y211D03*
X1303Y211D03*
X1203Y211D03*
X1103Y211D03*
X1003Y211D03*
X903Y211D03*
X803Y211D03*
X703Y211D03*
X603Y211D03*
X503Y211D03*
X403Y211D03*
X303Y211D03*
X103Y1111D03*
G54D12*
X489Y3053D03*
X489Y2953D03*
X489Y2853D03*
X489Y2753D03*
X489Y2653D03*
X489Y2553D03*
X489Y2453D03*
X489Y2353D03*
X489Y2253D03*
X489Y2153D03*
X489Y2053D03*
X489Y1953D03*
X489Y1853D03*
X489Y1753D03*
X489Y1653D03*
X489Y1553D03*
X489Y1453D03*
X489Y1353D03*
X489Y1253D03*
X489Y1153D03*
X489Y1053D03*
X489Y953D03*
X489Y853D03*
X489Y753D03*
G54D13*
X1591Y3053D03*
X1591Y2953D03*
X1591Y2853D03*
X1591Y2753D03*
X1591Y2653D03*
X1591Y2553D03*
X1591Y2453D03*
X1591Y2353D03*
X1591Y2253D03*
X1591Y2153D03*
X1591Y2053D03*
X1591Y1953D03*
X1591Y1853D03*
X1591Y1753D03*
X1591Y1653D03*
X1591Y1553D03*
X1591Y1453D03*
X1591Y1353D03*
X1591Y1253D03*
X1591Y1153D03*
X1591Y1053D03*
X1591Y953D03*
X1591Y853D03*
X1591Y753D03*
G54D14*
X741Y3054D03*
X741Y2954D03*
X741Y2854D03*
X741Y2754D03*
X741Y2654D03*
X741Y2554D03*
X741Y2454D03*
X741Y2354D03*
X741Y2254D03*
X741Y2154D03*
X741Y2054D03*
X741Y1954D03*
X741Y1854D03*
X741Y1754D03*
X741Y1654D03*
X741Y1554D03*
X741Y1454D03*
X741Y1354D03*
X741Y1254D03*
X741Y1154D03*
X741Y1054D03*
X741Y954D03*
X741Y854D03*
X741Y754D03*
X1359Y3054D03*
X1359Y2954D03*
X1359Y2854D03*
X1359Y2754D03*
X1359Y2654D03*
X1359Y2554D03*
X1359Y2454D03*
X1359Y2354D03*
X1359Y2254D03*
X1359Y2154D03*
X1359Y2054D03*
X1359Y1954D03*
X1359Y1854D03*
X1359Y1754D03*
X1359Y1654D03*
X1359Y1554D03*
X1359Y1454D03*
X1359Y1354D03*
X1359Y1254D03*
X1359Y1154D03*
X1359Y1054D03*
X1359Y954D03*
X1359Y854D03*
X1359Y754D03*
G54D12*
X1863Y457D03*
X304Y458D03*
X1836Y3256D03*
X253Y3189D03*
G54D15*
X162Y3811D03*
X363Y3811D03*
G54D12*
X1891Y1610D03*
X1891Y1510D03*
X1450Y71D03*
X1350Y71D03*
X1250Y71D03*
X1150Y71D03*
X1050Y71D03*
X950Y71D03*
X850Y71D03*
X750Y71D03*
X650Y71D03*
X103Y3153D03*
X103Y3053D03*
X2021Y3807D03*
X2021Y3707D03*
X2021Y3607D03*
G54D16*
X233Y3539D03*
X489Y3539D03*
X233Y3361D03*
X489Y3361D03*
X233Y3539D03*
X489Y3539D03*
X233Y3361D03*
X489Y3361D03*
G54D12*
X1584Y3256D03*
G54D17*
X648Y3212D03*
X1119Y3051D03*
X993Y3051D03*
G54D18*
X906Y3052D03*
G54D19*
X249Y2570D02*
X121Y2518D01*
D02*
X253Y3170D02*
X249Y2570D01*
D02*
X1836Y3237D02*
X1843Y3039D01*
D02*
X1843Y3039D02*
X1986Y2979D01*
D02*
X1990Y325D02*
X1876Y443D01*
D02*
X2003Y230D02*
X2003Y292D01*
D02*
X304Y439D02*
X303Y330D01*
D02*
X303Y230D02*
X303Y292D01*
D02*
X371Y3453D02*
X650Y3457D01*
D02*
X335Y3590D02*
X371Y3453D01*
D02*
X630Y3212D02*
X344Y3205D01*
D02*
X650Y3457D02*
X648Y3230D01*
D02*
X187Y3780D02*
X335Y3590D01*
D02*
X344Y3205D02*
X339Y2527D01*
D02*
X339Y2527D02*
X120Y2420D01*
D02*
X761Y3579D02*
X765Y3135D01*
D02*
X559Y3579D02*
X761Y3579D01*
D02*
X765Y3135D02*
X414Y3134D01*
D02*
X388Y3781D02*
X559Y3579D01*
D02*
X414Y3134D02*
X411Y2445D01*
D02*
X717Y3054D02*
X508Y3054D01*
D02*
X717Y2954D02*
X508Y2954D01*
D02*
X717Y2854D02*
X508Y2854D01*
D02*
X717Y2754D02*
X508Y2754D01*
D02*
X717Y2654D02*
X508Y2654D01*
D02*
X717Y2554D02*
X508Y2554D01*
D02*
X717Y2454D02*
X508Y2454D01*
D02*
X717Y2354D02*
X508Y2354D01*
D02*
X717Y2254D02*
X508Y2254D01*
D02*
X717Y2154D02*
X508Y2154D01*
D02*
X717Y2054D02*
X508Y2054D01*
D02*
X717Y1954D02*
X508Y1954D01*
D02*
X717Y1854D02*
X508Y1854D01*
D02*
X717Y1754D02*
X508Y1754D01*
D02*
X717Y1654D02*
X508Y1654D01*
D02*
X717Y1554D02*
X508Y1554D01*
D02*
X717Y1454D02*
X508Y1454D01*
D02*
X717Y1354D02*
X508Y1354D01*
D02*
X717Y1254D02*
X508Y1254D01*
D02*
X1572Y754D02*
X1383Y754D01*
D02*
X1572Y854D02*
X1383Y854D01*
D02*
X1572Y954D02*
X1383Y954D01*
D02*
X1572Y1054D02*
X1383Y1054D01*
D02*
X1572Y1154D02*
X1383Y1154D01*
D02*
X1572Y1254D02*
X1383Y1254D01*
D02*
X1572Y1354D02*
X1383Y1354D01*
D02*
X1572Y1454D02*
X1383Y1454D01*
D02*
X1572Y1554D02*
X1383Y1554D01*
D02*
X1572Y1654D02*
X1383Y1654D01*
D02*
X1572Y1754D02*
X1383Y1754D01*
D02*
X1572Y1854D02*
X1383Y1854D01*
D02*
X1572Y1954D02*
X1383Y1954D01*
D02*
X1572Y2054D02*
X1383Y2054D01*
D02*
X1572Y2154D02*
X1383Y2154D01*
D02*
X1572Y2254D02*
X1383Y2254D01*
D02*
X1572Y2354D02*
X1383Y2354D01*
D02*
X1572Y2454D02*
X1383Y2454D01*
D02*
X1572Y2554D02*
X1383Y2554D01*
D02*
X1572Y2654D02*
X1383Y2654D01*
D02*
X1572Y2754D02*
X1383Y2754D01*
D02*
X1572Y2854D02*
X1383Y2854D01*
D02*
X1572Y2954D02*
X1383Y2954D01*
D02*
X1572Y3054D02*
X1383Y3054D01*
G54D20*
D02*
X471Y2249D02*
X158Y2173D01*
D02*
X158Y1244D02*
X111Y1129D01*
D02*
X158Y2173D02*
X158Y1244D01*
D02*
X182Y2150D02*
X178Y1086D01*
D02*
X178Y1086D02*
X117Y1025D01*
D02*
X470Y2153D02*
X182Y2150D01*
D02*
X206Y2063D02*
X202Y1016D01*
D02*
X470Y2054D02*
X206Y2063D01*
D02*
X202Y1016D02*
X116Y925D01*
D02*
X225Y925D02*
X117Y824D01*
D02*
X470Y1954D02*
X229Y1957D01*
D02*
X229Y1957D02*
X225Y925D01*
D02*
X249Y1862D02*
X249Y858D01*
D02*
X249Y858D02*
X117Y725D01*
D02*
X470Y1854D02*
X249Y1862D01*
D02*
X272Y1756D02*
X272Y795D01*
D02*
X470Y1754D02*
X272Y1756D01*
D02*
X272Y795D02*
X116Y625D01*
D02*
X296Y1654D02*
X296Y752D01*
D02*
X296Y752D02*
X115Y526D01*
D02*
X470Y1654D02*
X296Y1654D01*
D02*
X320Y729D02*
X114Y427D01*
D02*
X320Y1551D02*
X320Y729D01*
D02*
X470Y1553D02*
X320Y1551D01*
D02*
X343Y1453D02*
X347Y696D01*
D02*
X347Y696D02*
X401Y330D01*
D02*
X470Y1453D02*
X343Y1453D01*
D02*
X371Y700D02*
X371Y1354D01*
D02*
X454Y362D02*
X371Y700D01*
D02*
X417Y224D02*
X454Y259D01*
D02*
X454Y259D02*
X454Y362D01*
D02*
X371Y1354D02*
X470Y1354D01*
G54D21*
D02*
X398Y1255D02*
X399Y704D01*
D02*
X399Y704D02*
X498Y330D01*
D02*
X470Y1254D02*
X398Y1255D01*
G54D20*
D02*
X426Y717D02*
X552Y359D01*
D02*
X552Y359D02*
X552Y264D01*
D02*
X552Y264D02*
X516Y225D01*
D02*
X422Y1110D02*
X426Y717D01*
D02*
X473Y1143D02*
X422Y1110D01*
D02*
X489Y953D02*
X650Y953D01*
D02*
X1048Y602D02*
X655Y366D01*
D02*
X655Y366D02*
X654Y272D01*
G54D19*
D02*
X765Y954D02*
X888Y952D01*
G54D20*
D02*
X654Y272D02*
X616Y226D01*
G54D19*
D02*
X717Y1154D02*
X508Y1154D01*
D02*
X717Y1054D02*
X508Y1054D01*
D02*
X717Y954D02*
X508Y954D01*
G54D22*
D02*
X1609Y3045D02*
X1986Y2879D01*
D02*
X1986Y2779D02*
X1609Y2945D01*
D02*
X1986Y2679D02*
X1609Y2845D01*
D02*
X1986Y2579D02*
X1609Y2745D01*
D02*
X1986Y2479D02*
X1609Y2645D01*
D02*
X1986Y2379D02*
X1609Y2545D01*
D02*
X1987Y2221D02*
X1608Y2443D01*
D02*
X1987Y2121D02*
X1608Y2343D01*
D02*
X1987Y2021D02*
X1608Y2243D01*
D02*
X1987Y1921D02*
X1608Y2143D01*
D02*
X1987Y1821D02*
X1608Y2043D01*
D02*
X1987Y1721D02*
X1608Y1943D01*
D02*
X1816Y1499D02*
X1608Y1642D01*
D02*
X1906Y1224D02*
X1816Y1499D01*
D02*
X1991Y1126D02*
X1906Y1224D01*
D02*
X1867Y1181D02*
X1991Y1026D01*
D02*
X1785Y1461D02*
X1867Y1181D01*
D02*
X1609Y1545D02*
X1785Y1461D01*
D02*
X1745Y1422D02*
X1611Y1449D01*
D02*
X1874Y1063D02*
X1745Y1422D01*
D02*
X1991Y926D02*
X1874Y1063D01*
D02*
X1840Y1020D02*
X1726Y1322D01*
D02*
X1726Y1322D02*
X1611Y1349D01*
D02*
X1992Y826D02*
X1840Y1020D01*
D02*
X1812Y996D02*
X1685Y1248D01*
D02*
X1919Y776D02*
X1812Y996D01*
D02*
X1685Y1248D02*
X1611Y1252D01*
D02*
X1988Y723D02*
X1919Y776D01*
D02*
X1760Y1003D02*
X1689Y1126D01*
D02*
X1689Y1126D02*
X1610Y1148D01*
D02*
X1871Y737D02*
X1760Y1003D01*
D02*
X1989Y624D02*
X1871Y737D01*
D02*
X1777Y417D02*
X1756Y870D01*
D02*
X1756Y870D02*
X1695Y1016D01*
D02*
X1695Y1016D02*
X1610Y1047D01*
D02*
X1889Y323D02*
X1777Y417D01*
D02*
X1726Y409D02*
X1791Y326D01*
D02*
X1608Y943D02*
X1685Y898D01*
D02*
X1685Y898D02*
X1726Y409D01*
D02*
X1678Y402D02*
X1698Y330D01*
D02*
X1651Y810D02*
X1678Y402D01*
D02*
X1607Y842D02*
X1651Y810D01*
D02*
X1592Y734D02*
X1603Y330D01*
G54D19*
D02*
X411Y2445D02*
X119Y2223D01*
D02*
X103Y2330D02*
X103Y2392D01*
D02*
X717Y854D02*
X508Y854D01*
D02*
X717Y754D02*
X508Y754D01*
D02*
X1984Y1611D02*
X1910Y1610D01*
D02*
X1984Y1511D02*
X1910Y1510D01*
G54D22*
D02*
X1464Y84D02*
X1589Y198D01*
D02*
X1364Y84D02*
X1489Y198D01*
D02*
X1264Y84D02*
X1389Y198D01*
D02*
X1164Y84D02*
X1289Y198D01*
D02*
X1064Y84D02*
X1189Y198D01*
D02*
X964Y84D02*
X1089Y198D01*
D02*
X864Y84D02*
X989Y198D01*
D02*
X764Y84D02*
X889Y198D01*
D02*
X664Y84D02*
X789Y198D01*
D02*
X179Y2866D02*
X119Y2822D01*
D02*
X179Y3055D02*
X179Y2866D01*
D02*
X122Y3054D02*
X179Y3055D01*
G54D20*
D02*
X1906Y3374D02*
X1930Y3338D01*
D02*
X2052Y3544D02*
X1990Y3544D01*
D02*
X1990Y3544D02*
X1906Y3480D01*
D02*
X1930Y3338D02*
X1989Y3284D01*
D02*
X2076Y3776D02*
X2076Y3570D01*
D02*
X1906Y3480D02*
X1906Y3374D01*
D02*
X2037Y3798D02*
X2076Y3776D01*
D02*
X2076Y3570D02*
X2052Y3544D01*
D02*
X1871Y3355D02*
X1895Y3331D01*
D02*
X1895Y3331D02*
X1898Y3126D01*
D02*
X2005Y3596D02*
X1874Y3499D01*
D02*
X1874Y3499D02*
X1871Y3355D01*
D02*
X1898Y3126D02*
X1986Y3080D01*
D02*
X37Y2740D02*
X86Y2719D01*
D02*
X37Y3228D02*
X37Y2740D01*
D02*
X217Y3350D02*
X37Y3228D01*
D02*
X214Y339D02*
X41Y337D01*
D02*
X41Y337D02*
X36Y2237D01*
D02*
X292Y227D02*
X214Y339D01*
D02*
X36Y2237D02*
X91Y2297D01*
G54D19*
D02*
X1128Y3259D02*
X1565Y3256D01*
D02*
X1120Y3069D02*
X1128Y3259D01*
D02*
X1336Y3054D02*
X1223Y3052D01*
D02*
X1336Y2954D02*
X1223Y2952D01*
D02*
X1336Y2854D02*
X1223Y2852D01*
D02*
X1336Y2754D02*
X1223Y2752D01*
D02*
X1336Y2654D02*
X1223Y2652D01*
D02*
X1336Y2554D02*
X1223Y2552D01*
D02*
X1336Y2454D02*
X1223Y2452D01*
D02*
X1336Y2254D02*
X1223Y2252D01*
D02*
X1336Y2354D02*
X1223Y2352D01*
D02*
X1336Y2054D02*
X1223Y2052D01*
D02*
X1336Y2154D02*
X1223Y2152D01*
D02*
X1336Y1954D02*
X1223Y1952D01*
D02*
X1336Y1854D02*
X1223Y1852D01*
D02*
X1336Y1754D02*
X1223Y1752D01*
D02*
X1336Y1654D02*
X1223Y1652D01*
D02*
X1336Y1554D02*
X1223Y1552D01*
D02*
X1336Y1454D02*
X1223Y1452D01*
D02*
X1336Y1354D02*
X1223Y1352D01*
D02*
X1336Y1254D02*
X1223Y1252D01*
D02*
X1336Y1154D02*
X1223Y1152D01*
D02*
X1336Y1054D02*
X1223Y1052D01*
D02*
X1336Y954D02*
X1223Y952D01*
D02*
X1336Y854D02*
X1223Y852D01*
D02*
X1336Y754D02*
X1223Y752D01*
G54D20*
D02*
X1048Y602D02*
X1048Y953D01*
D02*
X1048Y953D02*
X923Y952D01*
G54D19*
D02*
X765Y854D02*
X888Y852D01*
D02*
X765Y754D02*
X888Y752D01*
D02*
X888Y1052D02*
X765Y1054D01*
D02*
X765Y1154D02*
X888Y1152D01*
D02*
X765Y1254D02*
X888Y1252D01*
D02*
X765Y1354D02*
X888Y1352D01*
D02*
X765Y1454D02*
X888Y1452D01*
D02*
X765Y1554D02*
X888Y1552D01*
D02*
X765Y1654D02*
X888Y1652D01*
D02*
X765Y1754D02*
X888Y1752D01*
D02*
X765Y1854D02*
X888Y1852D01*
D02*
X765Y1954D02*
X888Y1952D01*
D02*
X765Y2054D02*
X888Y2052D01*
D02*
X765Y2154D02*
X888Y2152D01*
D02*
X765Y2254D02*
X888Y2252D01*
D02*
X765Y2354D02*
X888Y2352D01*
D02*
X765Y2454D02*
X888Y2452D01*
D02*
X765Y2554D02*
X888Y2552D01*
D02*
X765Y2654D02*
X888Y2652D01*
D02*
X765Y2754D02*
X888Y2752D01*
D02*
X765Y2854D02*
X888Y2852D01*
D02*
X765Y2954D02*
X888Y2952D01*
D02*
X765Y3054D02*
X888Y3052D01*
D02*
X1101Y3051D02*
X1011Y3051D01*
G04 End of Copper1*
M02*