; NON-PLATED HOLES START AT T1
; THROUGH (PLATED) HOLES START AT T100
M48
INCH
T1C0.137795
T100C0.039370
T101C0.040000
T102C0.035000
T103C0.047244
T104C0.035433
T105C0.038194
T106C0.078740
T107C0.038000
%
T1
X001032Y034526
X020126Y034172
X020126Y004644
X000992Y002085
T100
X015914Y011534
X015914Y020534
X015914Y030534
X015914Y028534
X015914Y019534
X015914Y010534
X015914Y015534
X015914Y016534
X015914Y007534
X015914Y018534
X015914Y027534
X015914Y013534
X015914Y014534
X015914Y021534
X015914Y009534
X015914Y023534
X015914Y026534
X015914Y029534
X015914Y012534
X015914Y017534
X015914Y024534
X015914Y008534
X015914Y025534
X015914Y022534
T101
X004891Y035392
X004891Y033612
X002331Y033612
X002331Y035392
T102
X009055Y022518
X012055Y021518
X009055Y020518
X012055Y008518
X009055Y009518
X009055Y024518
X012055Y015518
X012055Y018518
X012055Y017518
X012055Y009518
X009055Y023518
X012055Y024518
X009055Y017518
X009055Y018518
X009055Y011518
X009055Y021518
X012055Y027518
X009055Y027518
X009055Y010518
X009055Y028518
X009055Y007518
X009055Y016518
X012055Y028518
X009055Y014518
X012055Y007518
X009055Y025518
X009055Y012518
X009055Y029518
X009055Y026518
X012055Y010518
X012055Y029518
X012055Y023518
X012055Y014518
X012055Y011518
X009055Y015518
X012055Y026518
X009055Y013518
X012055Y016518
X012055Y013518
X009055Y019518
X009055Y008518
X012055Y030518
X012055Y022518
X009055Y030518
X012055Y020518
X012055Y025518
X012055Y019518
X012055Y012518
T103
X013591Y012542
X013591Y027542
X007410Y009542
X013591Y013542
X007410Y007542
X007410Y008542
X013591Y029542
X007410Y014542
X013591Y024542
X013591Y007542
X007410Y011542
X007410Y024542
X013591Y018542
X013591Y025542
X013591Y026542
X007410Y017542
X007410Y029542
X013591Y014542
X007410Y018542
X013591Y015542
X007410Y022542
X013591Y011542
X013591Y010542
X013591Y020542
X007410Y010542
X007410Y028542
X013591Y023542
X007410Y026542
X007410Y030542
X007410Y021542
X013591Y016542
X007410Y012542
X013591Y008542
X007410Y023542
X013591Y030542
X013591Y021542
X007410Y019542
X013591Y019542
X013591Y028542
X007410Y015542
X007410Y027542
X007410Y016542
X007410Y025542
X013591Y017542
X007410Y013542
X007410Y020542
X013591Y009542
X013591Y022542
T104
X009929Y030510
X011189Y030510
X006475Y032123
T105
X008033Y002111
X015033Y002111
X001033Y025111
X020033Y011111
X007033Y003111
X009033Y003111
X001033Y007111
X020033Y013111
X001033Y024111
X018033Y003111
X001033Y017111
X003033Y002111
X020033Y008111
X001033Y028111
X020033Y021111
X020033Y018111
X014033Y003111
X020033Y017111
X010033Y003111
X012033Y003111
X001033Y004111
X015033Y003111
X006033Y003111
X020033Y025711
X007033Y002111
X005033Y002111
X006033Y002111
X011033Y003111
X014033Y002111
X008033Y003111
X001033Y018111
X001033Y013111
X020033Y028711
X011033Y002111
X004033Y003111
X018033Y002111
X001033Y027111
X017033Y003111
X020033Y020111
X016033Y002111
X020033Y003111
X001033Y011111
X020033Y022111
X001033Y006111
X020033Y015111
X020033Y023711
X010033Y002111
X001033Y005111
X020033Y024711
X020033Y009111
X019033Y003111
X020033Y031711
X003033Y003111
X020033Y012111
X001033Y023111
X001033Y015111
X001033Y029111
X001033Y014111
X001033Y020111
X020033Y007111
X001033Y008111
X001033Y019111
X020033Y016111
X020033Y002111
X020033Y032711
X020033Y010111
X016033Y003111
X020033Y006111
X017033Y002111
X019033Y002111
X020033Y026711
X020033Y030711
X004033Y002111
X012033Y002111
X001033Y009111
X013033Y003111
X013033Y002111
X001033Y016111
X001033Y022111
X020033Y027711
X001033Y026111
X005033Y003111
X001033Y010111
X020033Y019111
X009033Y002111
X020033Y029711
T106
X001622Y038109
X003630Y038107
T107
X007504Y000707
X004890Y013534
X001032Y030534
X004890Y028534
X010504Y000707
X004890Y024534
X020205Y038070
X004890Y022534
X004890Y025534
X014504Y000707
X008504Y000707
X004890Y007534
X004890Y014534
X020205Y036070
X018630Y004565
X004890Y026534
X004890Y016534
X015835Y032558
X012504Y000707
X004890Y030534
X009504Y000707
X004890Y019534
X004890Y023534
X004890Y011534
X004890Y029534
X018906Y016101
X004890Y015534
X003040Y004577
X011504Y000707
X004890Y012534
X001032Y031534
X018355Y032558
X002528Y031888
X004890Y027534
X004890Y008534
X013504Y000707
X006504Y000707
X004890Y009534
X004890Y020534
X004890Y010534
X004890Y021534
X018906Y015101
X004890Y018534
X020205Y037070
X004890Y017534
T00
M30
